<svg width="118" height="118" viewBox="0 0 118 118" fill="none" xmlns="http://www.w3.org/2000/svg">
<circle cx="59" cy="59" r="59" fill="white"/>
<path d="M82.7237 16.2553C75.0367 23.2391 74.0659 26.3056 77.4339 33.2103L78.266 34.8919L78.3849 32.1221C78.4443 30.5988 78.6028 28.9369 78.7217 28.4225C79.2764 26.1869 80.2868 24.1096 81.6935 22.3488C82.1492 21.7751 82.2482 21.597 81.951 21.8344C81.218 22.4478 79.7915 24.7427 79.2566 26.1869C78.5236 28.1258 78.3254 29.115 78.1868 31.7265L78.0679 34.1005L77.4933 32.9135C76.7009 31.2516 76.582 30.9153 76.1659 29.3524C75.1555 25.5538 76.265 22.8039 80.5246 18.5899C83.5954 15.5629 85.1011 14.2769 85.1011 14.7518C85.1011 15.2068 86.4087 19.5593 86.6068 19.7176C86.7653 19.8758 86.7059 19.6582 85.9927 17.383C85.7153 16.4532 85.4181 15.3255 85.3389 14.8507L85.2002 14L82.7237 16.2553Z" fill="#151515"/>
<path d="M59.2466 21.0628C57.4635 21.2607 51.5199 22.6851 51.6982 22.8632C51.7379 22.9225 52.4313 22.7643 53.2436 22.5466C56.7899 21.5574 58.6126 21.2805 61.3268 21.2607C65.2298 21.2409 66.8544 21.8938 69.4497 24.4855C70.6583 25.7121 74.6008 30.7768 74.6008 31.1131C74.6008 31.1725 73.7489 30.7966 72.6989 30.302C71.6687 29.8074 70.7771 29.4513 70.7375 29.4908C70.6979 29.5106 71.7281 30.0448 73.0159 30.6581L75.3537 31.7858L74.3631 30.3613C70.0639 24.347 68.1818 22.5071 65.3289 21.5179C64.1996 21.1222 60.9702 20.8848 59.2466 21.0628Z" fill="#151515"/>
<path d="M87.1022 21.1814C87.0824 21.2606 87.3201 22.1113 87.5975 23.0609C88.2909 25.3954 88.4494 28.6202 87.9937 30.4404C87.439 32.5968 86.2503 34.4367 83.853 36.791C81.9114 38.7299 81.7529 38.9475 81.9313 39.363L82.1492 39.8378L82.0501 39.3432C81.9709 38.9475 82.2284 38.6112 83.7143 37.2065C85.6361 35.4259 87.2012 33.2893 87.8748 31.4889C88.489 29.9062 88.6277 26.899 88.1918 24.7821C87.9145 23.3577 87.1418 20.8253 87.1022 21.1814Z" fill="#151515"/>
<path d="M82.3275 22.2697C81.4756 24.1294 80.7425 27.1168 80.3463 30.3614C80.0689 32.5376 80.1878 37.5627 80.5246 38.7498L80.7227 39.4422L80.6435 38.6509C79.9897 33.3092 80.584 27.3344 82.1294 23.3578C82.7039 21.874 82.8228 21.2211 82.3275 22.2697Z" fill="#151515"/>
<path d="M47.2604 24.2282C45.1405 24.9404 43.3772 25.5537 43.3574 25.5735C43.3178 25.5933 44.0707 26.1472 45.0216 26.8001C45.9528 27.4332 49.1623 29.7875 52.1143 32.0231C58.0777 36.5141 59.9995 37.7407 62.5552 38.6903C65.527 39.818 66.7157 39.9961 71.6093 40.0554L76.0273 40.1148L76.8 40.6489C77.8897 41.4007 80.6832 44.3485 82.0304 46.1489C83.4568 48.0877 84.8437 50.3035 86.2107 52.8755C86.7852 53.9834 87.2805 54.7945 87.2805 54.7154C87.2805 54.2801 85.0418 50.2838 83.4965 47.969C81.3568 44.7838 79.1973 42.3504 76.5623 40.1741C76.3047 39.9763 75.1358 39.8971 71.7083 39.8576C63.5458 39.7586 61.2476 38.809 52.4115 32.0033C51.0445 30.9547 48.6076 29.1346 46.9632 27.9674C45.3386 26.8001 43.9716 25.7713 43.932 25.6922C43.9122 25.6131 45.5565 24.9998 47.5972 24.3073C49.6378 23.6347 51.3615 23.0411 51.4011 23.0016C51.6388 22.7839 50.7473 23.0411 47.2604 24.2282Z" fill="#151515"/>
<path d="M58.2757 26.6617C59.3654 26.7606 60.7918 26.8793 61.4456 26.9387C62.357 27.0376 62.456 27.0178 61.9211 26.8793C61.5447 26.7804 60.1182 26.6617 58.7512 26.6024C56.3143 26.5034 56.3143 26.5034 58.2757 26.6617Z" fill="#151515"/>
<path d="M64.1006 27.4727C64.9128 27.6508 65.8638 27.8882 66.1808 27.9673C66.5176 28.0465 66.7157 28.0663 66.6563 28.0069C66.4978 27.8289 63.4864 27.0771 63.0109 27.0969C62.793 27.0969 63.2883 27.2749 64.1006 27.4727Z" fill="#151515"/>
<path d="M57.9588 27.8686C61.5447 28.8183 64.1797 29.7679 67.1912 31.2121C71.7083 33.3884 75.6112 36.2571 78.6821 39.6401C79.534 40.6096 80.5444 41.6977 80.9208 42.0934L81.5746 42.8056L80.9208 41.9153C79.7321 40.293 74.9376 35.7031 73.0159 34.3578C70.7573 32.7553 66.4581 30.5197 63.6646 29.4712C61.4259 28.6402 57.721 27.5521 56.4729 27.374C56.037 27.3147 56.7106 27.5323 57.9588 27.8686Z" fill="#151515"/>
<path d="M66.894 28.1454C66.9534 28.2048 68.9346 28.9368 70.1431 29.3522C70.4998 29.4709 70.4998 29.4511 70.1828 29.2533C69.5488 28.8576 66.5374 27.8289 66.894 28.1454Z" fill="#151515"/>
<path d="M80.7624 39.6796C80.7426 39.9961 81.5549 42.1723 81.6341 42.0734C81.6738 42.0339 81.4955 41.4205 81.2379 40.7281C80.9803 40.0159 80.7624 39.5411 80.7624 39.6796Z" fill="#151515"/>
<path d="M82.1492 40.1345C82.1294 40.4906 83.6747 45.2784 83.6945 44.9816C83.7144 44.8629 83.3577 43.6561 82.9417 42.3107C82.5058 40.9456 82.1492 39.9762 82.1492 40.1345Z" fill="#151515"/>
<path d="M83.7143 45.4169C83.7143 45.5356 84.0313 46.0302 84.4077 46.5248C85.7747 48.3053 88.3107 52.3413 89.2022 54.1416C89.6975 55.1506 90.4504 56.9312 90.8664 58.0984C91.2825 59.2657 91.6193 60.1164 91.6193 59.9779C91.6589 59.5031 90.3711 56.1596 89.3607 54.0823C88.2314 51.7478 83.7143 44.8233 83.7143 45.4169Z" fill="#151515"/>
<path d="M87.3597 55.1703C87.6569 56.0606 89.2419 59.78 89.2617 59.602C89.2617 59.3052 88.0135 56.1793 87.5975 55.4671C87.4192 55.1308 87.3003 55.0121 87.3597 55.1703Z" fill="#151515"/>
<path d="M89.3409 60.1759C89.8362 61.7784 90.5494 64.6867 90.8466 66.3287C91.0447 67.4367 91.223 68.1093 91.223 67.8323C91.2627 66.7244 89.8758 60.809 89.4201 60.1166C89.2617 59.8792 89.2418 59.8792 89.3409 60.1759Z" fill="#151515"/>
<path d="M91.6589 60.4133C91.6589 60.5122 91.8768 61.6399 92.1344 62.8863C92.4117 64.1327 92.59 64.7064 92.5306 64.1723C92.4315 63.2028 91.6985 60.0176 91.6589 60.4133Z" fill="#151515"/>
<path d="M92.7089 69.415C92.7089 73.174 92.7287 73.4114 92.8674 71.5319C92.9665 70.3646 92.9665 68.4654 92.8674 67.2783C92.7287 65.3988 92.7089 65.656 92.7089 69.415Z" fill="#151515"/>
<path d="M91.3221 71.1954C91.3221 72.7782 91.3617 73.4112 91.3815 72.6199C91.4211 71.8483 91.4211 70.5426 91.3815 69.7512C91.3617 68.9796 91.3221 69.6127 91.3221 71.1954Z" fill="#151515"/>
<path d="M92.3523 74.7764C92.2731 75.3304 92.2533 75.825 92.2929 75.8843C92.3523 75.9239 92.4514 75.5084 92.5307 74.9545C92.6099 74.4005 92.6297 73.9059 92.5703 73.8466C92.5307 73.7872 92.4316 74.2225 92.3523 74.7764Z" fill="#151515"/>
<path d="M91.0844 74.4797C91.0646 74.7171 91.0051 75.2117 90.9457 75.5678C90.8466 76.1811 90.8466 76.2009 91.0447 75.7459C91.1636 75.4887 91.2231 74.9941 91.1834 74.6578C91.1438 74.3016 91.1042 74.2423 91.0844 74.4797Z" fill="#151515"/>
<path d="M91.8571 77.3483C91.7184 78.021 91.6589 78.5947 91.6986 78.6343C91.7382 78.6937 91.8967 78.1793 92.0354 77.5264C92.174 76.8735 92.2533 76.28 92.1939 76.2404C92.1542 76.2009 91.9957 76.6955 91.8571 77.3483Z" fill="#151515"/>
<path d="M90.6683 76.5768C90.6089 77.4869 89.3013 81.0282 88.2512 83.1649C84.17 91.4544 76.4631 97.7062 66.7751 100.575C65.9034 100.832 65.3685 101.05 65.5666 101.05C66.1411 101.069 70.4403 99.5857 72.1838 98.7547C79.4944 95.2925 85.1011 89.9311 88.489 83.244C89.4202 81.3646 90.906 77.0714 90.7872 76.5768C90.7079 76.2603 90.6881 76.2603 90.6683 76.5768Z" fill="#151515"/>
<path d="M90.8664 80.8699C89.7173 84.2925 87.5578 88.1702 85.1011 91.2763C83.6548 93.0964 80.4651 96.064 78.3651 97.5478C75.9282 99.2888 72.0054 101.267 69.4299 102.078C68.3204 102.434 67.4883 102.751 67.5874 102.791C67.9638 102.909 71.8469 101.465 73.8876 100.436C80.6831 97.0334 86.1313 91.5532 89.4399 84.7673C90.4305 82.7493 91.6985 79.3861 91.5994 79.0695C91.5598 78.9904 91.2428 79.7817 90.8664 80.8699Z" fill="#151515"/>
<path d="M28.3201 86.0138C29.4296 88.19 31.7674 91.3357 33.8675 93.5119C36.6411 96.3608 39.4941 98.5173 42.6838 100.159C44.9225 101.307 48.9246 102.87 49.4991 102.83C49.6378 102.83 48.8849 102.533 47.8547 102.177C45.4178 101.327 42.1291 99.7834 40.3064 98.5964C38.5629 97.4687 36.5025 95.9058 36.6213 95.8068C36.661 95.7673 37.4534 96.2223 38.3648 96.8356C39.2761 97.4687 40.9403 98.3986 42.0498 98.9327C44.0508 99.9021 47.2604 101.069 47.8349 101.069C48.0132 101.05 47.2604 100.773 46.1707 100.417C42.4659 99.1899 38.9591 97.2907 36.0666 94.9364C33.3524 92.7205 30.3013 89.1594 28.7164 86.3105C27.8843 84.8267 27.6267 84.6091 28.3201 86.0138ZM36.443 95.7079C36.3836 95.7673 35.7496 95.1935 35.0166 94.4417L33.6892 93.0964L35.1156 94.3626C35.8883 95.0551 36.5025 95.6684 36.443 95.7079Z" fill="#151515"/>
<path d="M48.6075 101.267C49.3604 101.584 52.6888 102.098 53.5209 101.999L54.2936 101.92L53.402 101.9C52.6294 101.861 50.5689 101.544 48.7462 101.188C48.2113 101.069 48.2113 101.089 48.6075 101.267Z" fill="#151515"/>
<path d="M63.5061 101.386L62.4165 101.643L63.3873 101.544C63.9222 101.485 64.5363 101.366 64.7741 101.267C65.3883 101.01 64.7543 101.069 63.5061 101.386Z" fill="#151515"/>
<path d="M60.6333 101.801C60.3163 101.841 58.7512 101.96 57.1662 102.059L54.2935 102.237L57.5625 102.138C59.3654 102.078 61.1881 101.96 61.6239 101.861C62.2579 101.742 62.2975 101.702 61.822 101.722C61.505 101.722 60.9701 101.762 60.6333 101.801Z" fill="#151515"/>
<path d="M50.3312 103.048C51.9954 103.602 55.7597 104.037 58.7513 103.997L61.8222 103.958L58.0579 103.819C55.9975 103.76 53.5804 103.542 52.7087 103.384C51.837 103.206 50.8067 103.028 50.4303 102.969C49.7369 102.85 49.7369 102.85 50.3312 103.048Z" fill="#151515"/>
<path d="M66.3194 102.988C66.1807 103.048 65.1109 103.246 63.942 103.443C62.7731 103.641 62.04 103.819 62.3174 103.819C62.5948 103.839 63.5656 103.701 64.4967 103.542C66.3788 103.206 67.6072 102.889 66.9732 102.889C66.7553 102.889 66.4581 102.929 66.3194 102.988Z" fill="#151515"/>
<path d="M84.487 14.5934C84.4672 14.6527 84.4672 14.7714 84.487 14.8506C84.487 14.9891 83.1001 16.097 82.8822 16.097C82.7237 16.097 82.4265 16.3937 82.4265 16.552C82.4265 16.73 78.7019 20.4297 78.5236 20.4494C78.4245 20.4494 78.3651 20.5088 78.3651 20.5879C78.3651 20.6671 77.9094 21.4189 77.3745 22.2498C76.8198 23.0807 76.3839 23.8919 76.3839 24.0501C76.3839 24.2084 76.3046 24.2875 76.2056 24.2282C76.1065 24.1491 76.0669 24.3073 76.1462 24.5447C76.2056 24.8019 76.166 24.9206 76.0471 24.8415C75.9282 24.7624 75.8886 24.9206 75.948 25.2372C76.0075 25.5142 75.9678 25.6922 75.8688 25.6329C75.7697 25.5735 75.6905 26.1868 75.6905 26.9782C75.6905 27.7695 75.7499 28.3828 75.8093 28.3433C76.0075 28.2246 76.2254 29.6095 76.0669 29.8864C75.9877 30.0249 76.0075 30.0447 76.1462 29.9656C76.3641 29.8271 76.4631 30.203 76.4433 30.9745C76.4235 31.113 76.5028 31.1724 76.6018 31.113C76.7603 31.0141 76.8594 31.3504 76.8396 31.9638C76.8198 32.1022 76.9188 32.1616 77.0377 32.0825C77.1764 32.0033 77.1962 32.0825 77.0971 32.3396C77.0179 32.5375 77.0179 32.6364 77.0971 32.5573C77.1764 32.4781 77.4339 32.7947 77.6519 33.2497L78.0679 34.1004L78.1273 32.0231C78.167 30.6976 78.2462 30.0447 78.3651 30.2425C78.4641 30.4206 78.484 30.203 78.4245 29.649C78.3453 29.1149 78.3849 28.8379 78.5038 28.917C78.6028 28.9961 78.6623 28.7785 78.6028 28.4026C78.5434 27.908 78.583 27.8289 78.7613 28.0663C78.9198 28.3037 78.9396 28.2246 78.8406 27.7893C78.7415 27.4134 78.7811 27.2551 78.9198 27.3541C79.0387 27.4332 79.0783 27.3145 78.9991 27.0375C78.9396 26.7803 78.9793 26.6616 79.0981 26.7408C79.2368 26.8397 79.2764 26.721 79.1972 26.444C79.1378 26.1868 79.1774 26.0681 79.2962 26.1472C79.4151 26.2264 79.5142 26.167 79.4944 26.0285C79.4746 25.3559 79.5736 25.0789 79.7915 25.2174C79.9104 25.2965 79.95 25.2767 79.8708 25.1383C79.7123 24.8811 80.4255 23.6545 80.6236 23.8721C80.7029 23.9512 80.7623 23.9117 80.7425 23.8127C80.6435 23.3775 80.7623 23.1005 80.9803 23.239C81.0991 23.3181 81.1388 23.2983 81.0793 23.1796C80.901 22.9027 81.5152 22.0915 81.7727 22.2498C81.8916 22.3289 81.9312 22.2894 81.8718 22.1904C81.6935 21.8937 82.1888 21.5178 82.486 21.7156C82.6247 21.7948 82.6841 22.0124 82.6048 22.1904C82.5454 22.3685 82.3869 22.4674 82.268 22.3883C82.1492 22.3289 82.1294 22.3685 82.2086 22.507C82.3869 22.784 82.169 23.5555 81.9312 23.417C81.852 23.3577 81.8124 23.516 81.8916 23.7534C81.9709 24.0699 81.9312 24.1293 81.7331 24.0106C81.5746 23.9117 81.5152 23.9314 81.5944 24.0699C81.7926 24.3469 81.2576 26.3253 81.0397 26.1472C80.9605 26.0483 80.9406 26.0879 81.0199 26.2264C81.1784 26.5034 80.9406 28.0861 80.7623 27.9872C80.7029 27.9476 80.6633 28.3235 80.7029 28.8181C80.7425 29.4512 80.7029 29.6688 80.584 29.471C80.4453 29.2929 80.4255 29.5105 80.5048 30.1436C80.5642 30.6778 80.5246 31.0537 80.4255 30.9745C80.3265 30.9152 80.2472 32.2012 80.2472 34.0015C80.2472 35.7227 80.3067 37.0878 80.3661 37.0482C80.5444 36.9493 80.802 39.086 80.6435 39.3432C80.584 39.4421 80.6236 39.541 80.7623 39.541C80.8812 39.541 80.9406 39.6993 80.8812 39.9367C80.8218 40.1939 80.8614 40.2928 81.0001 40.1939C81.1189 40.1148 81.1586 40.2335 81.0991 40.4907C81.0199 40.7676 81.0595 40.8863 81.1982 40.7874C81.3171 40.7083 81.3567 40.827 81.2973 41.0842C81.218 41.3216 81.2576 41.4799 81.3567 41.4007C81.4558 41.3414 81.5548 41.4205 81.5746 41.559C81.5746 41.6975 81.6143 41.8953 81.6143 42.014C81.6341 42.113 81.7133 42.3306 81.7926 42.4493C82.0105 42.8054 81.4558 42.7856 81.1586 42.4493C81.0397 42.291 81.0199 42.0932 81.0991 42.014C81.1784 41.9151 81.1388 41.9151 81.0001 41.9943C80.7821 42.113 80.0095 41.2622 79.9699 40.827C79.95 40.7083 79.8708 40.6292 79.7915 40.6292C79.6925 40.6292 79.1378 40.1148 78.583 39.4817C78.0085 38.8684 77.5924 38.354 77.6915 38.354C77.7707 38.354 77.6717 38.1759 77.4736 37.9583C77.2952 37.7605 77.0773 37.6022 76.9981 37.622C76.7801 37.6813 75.4131 36.5536 75.4527 36.336C75.4725 36.2173 75.3339 36.0986 75.1357 36.0788C74.6206 35.9799 74.1848 35.5842 74.3433 35.3073C74.4027 35.1885 74.4027 35.149 74.3036 35.2281C74.0857 35.4457 73.3725 35.0105 73.531 34.7533C73.6102 34.6346 73.5904 34.595 73.4715 34.6544C73.2338 34.8127 70.4007 32.9332 70.579 32.7353C70.6781 32.6562 70.6384 32.6166 70.5394 32.6562C70.2224 32.7551 69.0535 32.2012 69.1723 32.0033C69.2318 31.9044 69.1129 31.8846 68.9346 31.9638C68.6969 32.0429 68.6374 32.0231 68.7365 31.8648C68.8355 31.7066 68.7563 31.667 68.5384 31.7659C68.3006 31.845 68.2412 31.8253 68.3402 31.667C68.4393 31.5087 68.3601 31.4692 68.1421 31.5681C67.9044 31.6472 67.8449 31.6274 67.944 31.4692C68.0431 31.3109 67.9638 31.2713 67.7459 31.3702C67.5081 31.4494 67.4487 31.4296 67.5478 31.2713C67.6468 31.113 67.5676 31.0735 67.3496 31.1724C67.0921 31.2713 67.0525 31.2317 67.1713 31.0339C67.2704 30.8756 67.2506 30.8163 67.1119 30.9152C66.8742 31.0537 64.8137 30.1832 64.992 30.0051C65.0713 29.9458 64.992 29.8864 64.8533 29.9062C64.2392 29.926 63.8826 29.8271 63.9816 29.6688C64.0609 29.5699 63.9024 29.5303 63.6646 29.6095C63.4071 29.6688 63.2882 29.6292 63.3674 29.5105C63.4467 29.3918 63.3873 29.2929 63.2486 29.3127C62.575 29.3325 62.2976 29.2336 62.4363 29.0159C62.5155 28.8972 62.4957 28.8577 62.357 28.9368C62.0995 29.0951 60.3164 28.64 60.4551 28.4422C60.4947 28.3631 60.3362 28.3433 60.0985 28.4224C59.8409 28.4818 59.722 28.4422 59.8013 28.3235C59.8805 28.2048 59.722 28.1652 59.4051 28.2246C59.0286 28.3037 58.9296 28.2641 59.0484 28.0663C59.1475 27.908 59.1277 27.8487 59.0088 27.9278C58.7314 28.1059 57.5427 27.8685 57.6616 27.6904C57.7012 27.6113 57.4635 27.5915 57.1267 27.6311C56.7503 27.6904 56.5719 27.6508 56.6314 27.5321C56.7106 27.4134 56.5719 27.3739 56.2946 27.4134C55.9974 27.4728 55.7993 27.3936 55.72 27.1958C55.6012 26.9188 55.7993 26.8793 57.0474 26.8793C57.8399 26.8793 59.1871 26.8199 60.039 26.7408C61.0296 26.6616 61.5447 26.6814 61.4655 26.8199C61.3862 26.9188 61.5844 26.9782 61.941 26.9188C62.258 26.8793 62.5155 26.9188 62.5155 27.0177C62.5155 27.1167 62.7929 27.1562 63.1297 27.1167C63.6052 27.0375 63.7241 27.0771 63.6052 27.2749C63.5061 27.4332 63.5259 27.4926 63.6646 27.3936C63.9222 27.2354 65.5071 27.4728 65.4081 27.6508C65.3685 27.7102 65.6062 27.7893 65.943 27.7893C66.2798 27.8091 66.5968 27.908 66.6364 28.0267C66.6562 28.1256 66.8742 28.1652 67.1119 28.1059C67.3695 28.0465 67.4883 28.0861 67.4091 28.2048C67.3298 28.3235 67.3893 28.4224 67.528 28.4026C68.2214 28.3828 68.677 28.4818 68.578 28.64C68.5186 28.739 68.578 28.8181 68.7167 28.7983C69.3507 28.7785 69.6676 28.8774 69.5488 29.0555C69.4893 29.1544 69.5488 29.194 69.7073 29.1346C69.8658 29.0753 70.1233 29.1544 70.262 29.2929C70.4205 29.4314 70.6384 29.5501 70.7375 29.5699C71.2724 29.5897 72.0055 29.9062 71.9064 30.0645C71.847 30.1634 71.9658 30.1832 72.1441 30.104C72.3819 30.0249 72.4413 30.0447 72.3423 30.203C72.2432 30.3612 72.3224 30.4008 72.5404 30.3019C72.7781 30.2228 72.8376 30.2425 72.7385 30.4008C72.6394 30.5591 72.7187 30.5987 72.9366 30.4997C73.1744 30.4206 73.2338 30.4404 73.1347 30.5987C73.0357 30.7569 73.1149 30.7965 73.3329 30.6976C73.5706 30.6184 73.63 30.6382 73.531 30.7965C73.4319 30.9548 73.5112 30.9943 73.7291 30.8954C73.9272 30.8163 74.0263 30.8558 73.947 30.9548C73.8876 31.0537 74.0065 31.1526 74.2046 31.1526C74.4225 31.1526 74.5612 31.0141 74.5414 30.8163C74.5216 30.6184 74.4621 30.4997 74.3829 30.5591C74.2244 30.658 73.5508 29.6688 73.5508 29.3127C73.5508 29.1742 73.4715 29.1149 73.3923 29.1742C73.1744 29.2929 72.7979 28.5609 72.9762 28.3631C73.0555 28.2641 72.9961 28.2641 72.8772 28.3433C72.6394 28.4818 72.5206 28.2444 72.5998 27.8091C72.6196 27.7102 72.5404 27.6904 72.4413 27.7695C72.2036 27.908 71.7875 27.1958 71.9856 26.9782C72.0649 26.8793 72.0253 26.8793 71.8866 26.9584C71.6488 27.0969 71.0941 26.3451 71.1932 26.0285C71.213 25.9296 71.1535 25.9098 71.0545 25.9692C70.9554 26.0285 70.6384 25.7713 70.3611 25.3955C70.0639 25.0196 69.8856 24.703 69.9648 24.703C70.0441 24.703 69.9054 24.4854 69.6478 24.2084C69.4101 23.9512 69.1327 23.7534 69.0733 23.7732C68.8355 23.8523 67.2704 22.5861 67.4091 22.4476C67.4883 22.3685 67.3893 22.3685 67.1912 22.4476C66.894 22.5663 66.8543 22.5268 66.9732 22.3289C67.0723 22.1707 67.0525 22.1113 66.9336 22.1904C66.6959 22.3487 65.626 21.8541 65.8043 21.6761C65.8638 21.6167 65.7251 21.6167 65.4675 21.6761C65.21 21.7552 65.0713 21.7156 65.1505 21.5969C65.21 21.498 65.1109 21.4189 64.9326 21.4189C63.8033 21.4189 63.0505 21.3002 63.3476 21.1814C63.5458 21.1023 62.7731 21.043 61.6438 21.043C60.5145 21.043 59.6824 21.1023 59.8013 21.1814C59.9994 21.3199 59.0881 21.3991 57.4239 21.4189C57.1861 21.4189 57.0474 21.498 57.1069 21.6167C57.1663 21.7156 56.9484 21.7552 56.6116 21.6958C56.255 21.6365 56.037 21.6958 56.1163 21.7948C56.1757 21.9135 55.9776 21.953 55.621 21.8937C55.2644 21.8343 55.0464 21.8937 55.1257 21.9926C55.2049 22.1113 55.0266 22.1509 54.7294 22.0915C54.4124 22.0322 54.2539 22.0717 54.3332 22.1904C54.4124 22.3091 54.2539 22.3487 53.937 22.2894C53.62 22.23 53.4615 22.2696 53.5407 22.3883C53.62 22.507 53.5011 22.5466 53.2435 22.4872C52.9662 22.4081 52.8473 22.4476 52.9265 22.5663C53.0256 22.7048 52.8869 22.7444 52.5501 22.685C52.2331 22.6257 52.0746 22.6653 52.1539 22.784C52.2331 22.9027 52.1143 22.9422 51.8567 22.8829C51.619 22.8037 51.4208 22.8433 51.4208 22.962C51.4208 23.0807 51.2822 23.1005 51.1038 23.0412C50.9057 22.962 50.8463 23.0016 50.9454 23.1599C51.0444 23.2983 50.9255 23.3379 50.5689 23.2786C50.2717 23.2192 50.0934 23.239 50.1331 23.3181C50.2519 23.516 48.0924 24.1491 47.8151 23.9908C47.6764 23.8919 47.6566 23.9314 47.7556 24.1095C47.8745 24.3073 47.8151 24.3469 47.4981 24.2678C47.2207 24.1886 47.1018 24.2282 47.2009 24.3667C47.2801 24.4854 47.1613 24.525 46.9037 24.4656C46.6263 24.3865 46.5075 24.426 46.6065 24.5645C46.6858 24.6832 46.5669 24.7228 46.3094 24.6634C46.0716 24.5843 45.9131 24.6239 45.9924 24.7228C46.0914 24.8811 45.7546 24.98 45.1405 24.9602C45.0018 24.9404 44.9423 25.0393 45.0216 25.158C45.1008 25.2767 44.982 25.3163 44.7244 25.257C44.4867 25.1778 44.3282 25.2174 44.4074 25.3163C44.4668 25.4152 44.3876 25.4944 44.2291 25.4944C44.0706 25.4944 43.8923 25.6329 43.8131 25.7911C43.7536 25.9494 43.7734 26.0681 43.8527 26.0681C44.2489 26.0088 44.4867 26.1077 44.3876 26.2857C44.3083 26.4044 44.3282 26.4836 44.4272 26.4638C44.8433 26.3847 45.1008 26.5034 44.9621 26.721C44.8829 26.8397 44.9027 26.8793 45.0216 26.8199C45.2791 26.6616 46.5075 27.5519 46.3094 27.7695C46.2301 27.8685 46.2697 27.8685 46.3886 27.8091C46.666 27.6508 47.9141 28.5411 47.6962 28.739C47.6169 28.8181 47.6566 28.8774 47.7556 28.8379C48.1122 28.7587 48.6472 29.0951 48.5085 29.3325C48.449 29.4512 48.449 29.4907 48.5481 29.4116C48.7858 29.194 49.4793 29.6292 49.3208 29.9062C49.2415 30.0447 49.2415 30.0843 49.3406 30.0051C49.5783 29.7875 50.2717 30.2228 50.1133 30.4997C50.034 30.6382 50.034 30.6778 50.1331 30.5987C50.3708 30.381 51.0642 30.8163 50.9057 31.0933C50.8265 31.2317 50.8265 31.2713 50.9255 31.1922C51.1633 30.9745 51.8567 31.4098 51.6982 31.6868C51.619 31.8253 51.619 31.8648 51.718 31.7857C51.9359 31.5879 53.62 32.8343 53.4615 33.0914C53.402 33.2101 53.402 33.2497 53.5011 33.1706C53.719 32.9727 54.4323 33.3882 54.2936 33.6256C54.2143 33.7245 54.2341 33.8037 54.3332 33.7839C54.67 33.7048 55.1851 34.0609 55.0464 34.2785C54.987 34.3972 54.987 34.4368 55.0861 34.3576C55.2842 34.1796 56.0172 34.5555 55.8983 34.7731C55.8389 34.8522 55.8983 34.9314 56.037 34.9314C56.4333 34.9314 57.3644 35.604 57.2456 35.8019C57.1861 35.9008 57.2059 35.9799 57.305 35.9601C57.7012 35.9008 57.9786 35.9997 57.8597 36.1777C57.7805 36.2965 57.8003 36.3756 57.8993 36.3558C58.2956 36.2965 58.573 36.3954 58.4541 36.5734C58.3748 36.6921 58.3946 36.7515 58.4937 36.7317C58.8107 36.6526 59.5437 37.0087 59.4447 37.1867C59.3852 37.2857 59.4843 37.3054 59.6626 37.2263C59.9202 37.1274 59.9598 37.167 59.8409 37.3648C59.7419 37.5231 59.7617 37.5824 59.8805 37.5033C60.1183 37.3648 61.9806 38.2353 61.8023 38.4133C61.7429 38.4727 61.8221 38.5123 61.9608 38.4925C62.575 38.4727 62.9316 38.5716 62.8325 38.7299C62.7533 38.8288 62.9118 38.8684 63.1495 38.7892C63.4071 38.7299 63.5259 38.7695 63.4467 38.8882C63.3476 39.0266 63.4665 39.0662 63.7439 38.9871C64.0609 38.9079 64.1203 38.9475 64.0014 39.1454C63.9024 39.3036 63.9222 39.363 64.041 39.2838C64.2788 39.1454 66.6959 39.5608 66.577 39.7191C66.5374 39.7784 67.0128 39.818 67.627 39.7982C68.261 39.7587 68.5978 39.818 68.4195 39.8971C68.2412 39.9763 69.8658 40.0356 72.0451 40.0356C74.2244 40.0356 75.8093 39.9763 75.5518 39.8971C75.215 39.818 75.1952 39.7784 75.4527 39.7587C75.9877 39.7191 76.6216 40.1148 76.4631 40.3918C76.3839 40.5302 76.3839 40.5698 76.483 40.4907C76.7009 40.273 77.4141 40.7083 77.2556 40.9655C77.1764 41.0842 77.1962 41.1238 77.3349 41.0446C77.6122 40.8863 80.584 43.8737 80.4057 44.1507C80.3463 44.2694 80.3859 44.2892 80.5048 44.2101C80.7623 44.0518 81.5944 45.1597 81.3765 45.3773C81.2973 45.4762 81.3369 45.4762 81.4756 45.3971C81.7133 45.2586 82.1888 45.9115 82.0303 46.1489C81.9709 46.2083 81.9907 46.228 82.0699 46.1687C82.2482 46.0302 83.12 47.2964 82.9813 47.514C82.9218 47.6327 82.9615 47.6525 83.0803 47.5734C83.2983 47.4349 83.4171 47.6921 83.3379 48.1075C83.3181 48.2064 83.3973 48.2262 83.5162 48.1471C83.7143 48.0284 83.8134 48.3251 83.7143 48.7406C83.6945 48.8395 83.7539 48.8791 83.8332 48.8C84.0511 48.5823 84.5464 49.3935 84.3879 49.6902C84.3087 49.8089 84.3087 49.8683 84.4077 49.7892C84.6257 49.5715 85.1606 50.3629 84.9823 50.6597C84.903 50.7784 84.9228 50.8179 85.0417 50.7586C85.2993 50.6003 85.9531 51.7478 85.7748 52.0445C85.6757 52.183 85.7153 52.2028 85.8936 52.1039C86.0917 51.9852 86.1314 52.0248 86.0323 52.282C85.9333 52.4996 85.9729 52.5787 86.1314 52.4798C86.2899 52.3809 86.3097 52.4402 86.2304 52.6776C86.1314 52.8953 86.171 52.9744 86.3295 52.8755C86.488 52.7766 86.5078 52.8359 86.4286 53.0733C86.3295 53.2909 86.3691 53.3701 86.5276 53.2712C86.6861 53.1722 86.7059 53.2316 86.6267 53.469C86.5276 53.6866 86.5672 53.7658 86.7257 53.6668C86.8842 53.5679 86.904 53.6273 86.8248 53.8647C86.7455 54.0427 86.7654 54.1614 86.8644 54.1021C87.0823 53.9636 87.3201 54.5373 87.1616 54.7945C87.1022 54.8934 87.1418 54.9726 87.2408 54.9726C87.4984 54.9726 87.8946 55.9618 87.756 56.1992C87.6767 56.3179 87.7163 56.3575 87.8352 56.2783C88.0928 56.1201 88.3503 56.8521 88.1522 57.1686C88.0531 57.3269 88.0928 57.3467 88.2711 57.2477C88.4692 57.129 88.5088 57.1686 88.4097 57.4258C88.3107 57.6434 88.3503 57.7226 88.5088 57.6236C88.6475 57.5247 88.6871 57.6236 88.6277 57.9006C88.5484 58.138 88.5881 58.2963 88.6871 58.2172C88.8456 58.1182 88.9447 58.4546 88.9249 59.0679C88.905 59.2064 89.0041 59.2657 89.123 59.1866C89.2418 59.1074 89.2815 59.2262 89.222 59.4833C89.1428 59.7207 89.1824 59.9186 89.3013 59.9186C89.4202 59.9186 89.44 60.0571 89.3805 60.2351C89.3013 60.433 89.3409 60.4923 89.4994 60.3934C89.6381 60.2945 89.6777 60.3934 89.6183 60.6704C89.539 60.9474 89.5787 61.0661 89.6975 60.9869C89.8362 60.888 89.8758 61.0265 89.8164 61.3628C89.757 61.6794 89.7966 61.8376 89.9155 61.7585C90.0343 61.6794 90.074 61.7981 90.0145 62.0553C89.9353 62.3322 89.9749 62.4509 90.0938 62.3718C90.2324 62.2729 90.2721 62.4114 90.2126 62.7477C90.1532 63.0643 90.1928 63.2225 90.3117 63.1434C90.4306 63.0643 90.4702 63.2225 90.4108 63.5391C90.3513 63.8556 90.3909 64.0139 90.5098 63.9347C90.6485 63.8556 90.6683 64.0535 90.5891 64.4887C90.49 64.9833 90.5098 65.0822 90.6683 64.8646C90.8268 64.647 90.8466 64.7459 90.807 65.2998C90.7674 65.7153 90.807 65.9725 90.9061 65.9132C91.0249 65.8538 91.0645 66.0714 91.0051 66.4078C90.9457 66.7836 91.0051 66.9815 91.1042 66.9024C91.2429 66.8232 91.2627 67.2189 91.1834 67.9509C91.1042 68.6829 91.124 68.9797 91.2429 68.7225C91.3419 68.4653 91.4212 69.3754 91.4212 71.1955C91.4212 72.7782 91.3617 73.9653 91.2825 73.8268C91.2032 73.6883 91.124 74.1235 91.1438 74.7962C91.1438 75.5084 91.0447 76.0426 90.9259 76.0821C90.807 76.1217 90.7476 76.3789 90.807 76.6757C90.8664 76.9922 90.8268 77.1505 90.7079 77.0713C90.5891 76.9922 90.5494 77.1505 90.6089 77.467C90.6683 77.8034 90.6287 77.9418 90.49 77.8429C90.3711 77.7638 90.3315 77.8825 90.4108 78.1595C90.49 78.476 90.4504 78.5354 90.2523 78.4167C90.074 78.3177 90.0343 78.3375 90.1334 78.476C90.2919 78.753 89.856 80.3159 89.6381 80.1972C89.5588 80.1379 89.539 80.2961 89.6183 80.5336C89.6975 80.8501 89.6579 80.9095 89.4598 80.7907C89.3013 80.6918 89.2418 80.7116 89.3211 80.8303C89.4994 81.1073 89.0635 82.2943 88.8456 82.1558C88.7466 82.0965 88.7267 82.2152 88.806 82.3933C88.8852 82.6307 88.8654 82.69 88.7069 82.5911C88.5484 82.4922 88.5088 82.5713 88.6079 82.7889C88.7069 83.0461 88.6673 83.0857 88.4692 82.967C88.3107 82.8681 88.2513 82.8879 88.3503 83.0263C88.5088 83.2835 88.0729 84.2727 87.855 84.1342C87.756 84.0749 87.7361 84.1936 87.8154 84.3717C87.9144 84.6288 87.8748 84.6684 87.6767 84.5497C87.4984 84.4508 87.4588 84.4706 87.5578 84.6091C87.6965 84.8465 87.221 85.717 87.0427 85.5389C87.0031 85.4796 86.9437 85.5587 86.9437 85.717C86.9437 86.172 86.0719 87.4382 85.854 87.2997C85.7351 87.2206 85.6955 87.2403 85.7549 87.359C85.9134 87.6162 84.9427 88.922 84.6455 88.8428C84.5068 88.8033 84.4672 88.8428 84.5464 88.922C84.7445 89.1 83.9521 90.1882 83.6549 90.1288C83.5162 90.109 83.4369 90.1882 83.4568 90.3069C83.4766 90.4256 82.9615 91.0389 82.3077 91.6917C81.6737 92.3248 81.1388 92.7799 81.1388 92.6809C81.1388 92.582 81.0001 92.6216 80.8416 92.7601C80.6831 92.8986 80.584 93.0766 80.6435 93.1558C80.7821 93.3734 79.6529 94.1648 79.4547 93.9867C79.3557 93.9076 79.3557 93.9471 79.4349 94.0856C79.5934 94.3626 78.9 94.7978 78.6623 94.5802C78.5632 94.5011 78.5632 94.5406 78.6425 94.6791C78.801 94.9561 78.1075 95.3914 77.8698 95.1737C77.7707 95.0946 77.7509 95.1342 77.8302 95.2331C77.949 95.4705 76.1462 96.7762 75.6905 96.7762C75.532 96.7762 75.4527 96.8356 75.4924 96.9147C75.5914 97.0928 73.9866 97.8248 73.7093 97.7457C73.6102 97.7061 73.5904 97.7457 73.6697 97.8248C73.8678 98.0424 71.4705 99.1503 71.1932 98.9723C71.0545 98.8734 71.0347 98.9129 71.1337 99.091C71.2526 99.2888 71.213 99.3284 70.9554 99.2295C70.7375 99.1305 70.6582 99.1701 70.7573 99.3284C70.8564 99.4669 70.7573 99.5064 70.4799 99.4471C70.2422 99.368 70.0837 99.4075 70.1629 99.5064C70.262 99.6647 69.9252 99.7636 69.311 99.7438C69.1723 99.7241 69.1129 99.823 69.1922 99.9417C69.2714 100.06 69.1525 100.1 68.895 100.041C68.6572 99.9615 68.4987 99.9813 68.5582 100.08C68.677 100.278 67.7063 100.535 67.4289 100.357C67.2902 100.258 67.2704 100.318 67.3695 100.476C67.4883 100.674 67.4289 100.713 67.1119 100.634C66.8345 100.555 66.7157 100.595 66.7949 100.713C66.894 100.852 66.7553 100.891 66.4185 100.832C66.1015 100.773 65.943 100.812 66.0222 100.931C66.1015 101.05 65.943 101.089 65.6062 101.03C65.3288 100.97 65.0911 101.01 65.0911 101.129C65.0911 101.228 64.9128 101.267 64.6948 101.208C64.4373 101.149 64.3382 101.188 64.4373 101.307C64.5165 101.465 64.2986 101.485 63.7835 101.406C63.2089 101.307 63.0901 101.327 63.308 101.485C63.5259 101.643 63.4467 101.663 62.9712 101.604C62.6146 101.564 62.3174 101.623 62.3174 101.722C62.3174 101.841 61.8815 101.861 61.2872 101.801C60.5343 101.722 60.3758 101.742 60.7325 101.861C61.0891 101.999 60.7523 102.039 59.6032 101.999C58.7314 101.979 58.0975 102.019 58.2163 102.098C58.355 102.177 57.5427 102.256 56.4135 102.256C55.2842 102.256 54.4124 102.177 54.4719 102.098C54.5115 102.019 53.9766 101.979 53.2435 102.019C52.3124 102.059 51.9954 102.019 52.1935 101.881C52.4114 101.742 52.2331 101.722 51.619 101.801C51.1038 101.881 50.8067 101.841 50.8859 101.742C50.9454 101.623 50.6878 101.584 50.2717 101.623C49.717 101.663 49.618 101.643 49.8359 101.485C50.0538 101.327 49.9548 101.307 49.4595 101.406C49.0038 101.485 48.8255 101.465 48.9047 101.307C49.0038 101.188 48.9047 101.149 48.6472 101.208C48.4292 101.267 48.2509 101.228 48.2509 101.129C48.2509 101.01 48.0132 100.97 47.7358 101.03C47.3396 101.109 47.2405 101.069 47.3594 100.872C47.4584 100.693 47.4386 100.654 47.3 100.753C47.0226 100.911 44.8631 100.278 44.982 100.06C45.0414 99.9813 44.8829 99.9615 44.6452 100.041C44.3282 100.12 44.2687 100.08 44.3876 99.8823C44.4867 99.7241 44.4668 99.6647 44.348 99.7438C44.0706 99.9219 42.8423 99.4075 43.0404 99.2097C43.1196 99.1305 43.0206 99.1305 42.8225 99.2097C42.5253 99.3284 42.4857 99.2888 42.6045 99.091C42.7036 98.9327 42.6838 98.8734 42.5451 98.9723C42.2875 99.1305 40.9007 98.4975 41.0394 98.26C41.0988 98.1809 40.9799 98.1611 40.8016 98.2403C40.5639 98.3194 40.5045 98.2996 40.6035 98.1413C40.7026 97.9831 40.6233 97.9435 40.4054 98.0424C40.1478 98.1413 40.1082 98.1018 40.2271 97.8842C40.3063 97.7259 40.3261 97.6665 40.2271 97.7457C40.029 97.9435 38.5233 97.1126 38.6619 96.8752C38.7214 96.7762 38.7016 96.7169 38.6025 96.7367C38.2063 96.796 37.9289 96.6971 38.0478 96.5191C38.127 96.4003 38.1072 96.3212 38.0081 96.341C37.6119 96.4003 37.3345 96.3014 37.4534 96.1234C37.5327 96.0047 37.5129 95.9453 37.4138 95.9651C37.0968 96.064 36.3439 95.5101 36.4826 95.2727C36.5619 95.1342 36.5619 95.0946 36.4628 95.1737C36.2845 95.3518 35.4722 94.8176 35.4722 94.5406C35.4722 94.4219 35.4128 94.3626 35.3335 94.3824C35.2543 94.4219 34.8779 94.1252 34.4816 93.7493C34.0854 93.3734 33.709 93.0568 33.6297 93.0568C33.5505 93.0568 33.5108 92.9777 33.5505 92.8986C33.5703 92.7997 33.491 92.7997 33.3722 92.859C33.1542 92.9975 35.2939 95.3518 35.5515 95.2727C35.7892 95.2133 36.76 95.9849 36.6411 96.1432C36.5817 96.2421 36.6015 96.3014 36.7006 96.2816C37.0176 96.1827 37.7704 96.7367 37.6317 96.9741C37.5525 97.1126 37.5525 97.1521 37.6515 97.073C37.8695 96.8554 38.5827 97.2906 38.4242 97.5478C38.345 97.6665 38.3648 97.7061 38.4836 97.6467C38.7412 97.4885 40.9601 98.9723 40.7818 99.1899C40.6828 99.269 40.7224 99.2888 40.8611 99.2097C41.1384 99.0514 42.3668 99.7636 42.1687 99.9615C42.0894 100.041 42.1885 100.041 42.3866 99.9615C42.6441 99.8626 42.7234 99.8823 42.6243 100.041C42.5253 100.199 42.6045 100.238 42.8225 100.14C43.0602 100.06 43.1196 100.08 43.0206 100.238C42.9215 100.397 43.0008 100.436 43.2187 100.337C43.4564 100.258 43.5159 100.278 43.4168 100.436C43.3178 100.595 43.397 100.634 43.6149 100.535C43.8725 100.436 43.9121 100.476 43.7932 100.674C43.6942 100.832 43.714 100.891 43.8527 100.792C44.1102 100.634 45.715 101.247 45.5763 101.465C45.5169 101.544 45.5961 101.623 45.7348 101.604C46.349 101.584 46.6858 101.683 46.5867 101.841C46.5075 101.94 46.666 101.979 46.9037 101.9C47.1613 101.841 47.2801 101.881 47.2009 101.999C47.1018 102.138 47.2207 102.177 47.4981 102.098C47.7556 102.039 47.8745 102.078 47.7953 102.197C47.6962 102.336 47.8151 102.375 48.0924 102.296C48.3104 102.237 48.4689 102.276 48.4094 102.375C48.3302 102.474 48.5679 102.573 48.9047 102.573C49.2415 102.593 49.5585 102.692 49.5783 102.791C49.618 102.909 49.8755 102.949 50.1727 102.89C50.5491 102.81 50.6482 102.85 50.5293 103.048C50.4302 103.206 50.4501 103.265 50.5689 103.186C50.6878 103.107 51.2029 103.107 51.718 103.186C52.2728 103.246 52.5501 103.364 52.3916 103.463C52.2529 103.542 52.5303 103.562 53.0058 103.503C53.5011 103.424 53.8181 103.463 53.7388 103.562C53.6794 103.661 53.9766 103.72 54.4323 103.681C54.8681 103.622 55.1851 103.681 55.1257 103.76C55.0662 103.859 56.6116 103.938 58.5531 103.938C60.4947 103.938 62.04 103.859 61.9806 103.76C61.9212 103.681 62.2382 103.622 62.674 103.681C63.1297 103.72 63.4269 103.661 63.3674 103.562C63.2882 103.463 63.6052 103.424 64.1005 103.503C64.7147 103.582 64.893 103.562 64.675 103.424C64.4769 103.265 64.5958 103.246 65.1307 103.285C65.5468 103.325 65.8043 103.285 65.7449 103.166C65.6854 103.068 65.8439 103.028 66.1411 103.087C66.4581 103.147 66.6166 103.107 66.5374 102.988C66.4581 102.87 66.6166 102.83 66.9138 102.89C67.1713 102.929 67.5081 102.85 67.6468 102.692C67.8053 102.553 68.1223 102.454 68.3799 102.514C68.6572 102.553 68.7959 102.514 68.7167 102.395C68.6374 102.276 68.7563 102.237 69.0138 102.296C69.2912 102.375 69.4101 102.336 69.311 102.197C69.2318 102.078 69.3507 102.039 69.6082 102.098C69.8856 102.177 70.0044 102.138 69.9054 101.999C69.8261 101.881 69.945 101.841 70.2026 101.9C70.4403 101.979 70.5988 101.94 70.5196 101.841C70.4205 101.683 70.7771 101.584 71.3913 101.604C71.53 101.623 71.6092 101.564 71.5498 101.505C71.3715 101.327 72.6196 100.852 72.8772 101.01C72.9961 101.089 73.0159 101.03 72.9168 100.872C72.7979 100.674 72.8376 100.634 73.0951 100.733C73.313 100.832 73.3923 100.792 73.2932 100.634C73.1942 100.476 73.2536 100.456 73.4913 100.535C73.7093 100.634 73.7885 100.595 73.6895 100.436C73.5904 100.278 73.6498 100.258 73.8876 100.337C74.1055 100.436 74.1848 100.397 74.0857 100.238C73.9866 100.08 74.0659 100.06 74.3235 100.159C74.5216 100.238 74.6206 100.238 74.5414 100.159C74.3631 99.9813 76.6216 98.6953 76.8594 98.8338C76.9584 98.9129 76.9783 98.8536 76.899 98.7349C76.7603 98.5172 77.0179 98.3985 77.4339 98.4777C77.533 98.4975 77.5528 98.4183 77.4736 98.2996C77.3547 98.1216 77.632 98.0226 78.0283 98.082C78.1273 98.1018 78.1472 98.0226 78.0679 97.9039C77.949 97.7259 78.2264 97.627 78.6226 97.6863C78.7217 97.7061 78.7415 97.627 78.6623 97.528C78.5236 97.2906 79.2368 96.8752 79.4547 97.073C79.5538 97.1521 79.5538 97.1126 79.4746 96.9741C79.3161 96.6971 80.0095 96.2619 80.2472 96.4795C80.3463 96.5586 80.3463 96.5191 80.2868 96.4003C80.168 96.2025 81.0199 95.4309 81.1982 95.5694C81.3369 95.6683 81.9312 95.0946 81.8322 94.9561C81.7331 94.7781 83.6747 92.8392 83.8728 92.8986C83.9521 92.9381 84.0115 92.8986 84.0115 92.7997C84.0115 92.5029 84.9625 91.395 85.1408 91.4939C85.2398 91.5533 85.2795 91.5335 85.2596 91.4346C85.1804 91.1774 85.6955 90.3662 85.8738 90.4651C85.9531 90.5245 86.0323 90.4651 86.0323 90.3266C86.0323 89.931 86.7059 89.0011 86.904 89.1198C87.0031 89.1792 87.0823 89.1594 87.0625 89.0605C86.9833 88.645 87.1022 88.3878 87.3201 88.5263C87.4588 88.6054 87.4786 88.5857 87.3993 88.4472C87.221 88.1702 87.756 87.359 87.9541 87.5767C88.0333 87.6558 88.0729 87.6162 88.0531 87.5173C87.9541 87.181 88.2909 86.4094 88.489 86.5281C88.5881 86.5875 88.6079 86.4885 88.5286 86.3105C88.4296 86.0533 88.4692 86.0137 88.6673 86.1324C88.8258 86.2314 88.8852 86.2116 88.806 86.0929C88.6475 85.8357 89.757 83.6396 89.9551 83.8177C90.0541 83.8968 90.0541 83.8573 89.9947 83.7386C89.8164 83.422 90.3315 82.2152 90.5494 82.413C90.6287 82.512 90.6485 82.4724 90.5891 82.3537C90.4306 82.0767 90.8664 80.672 91.0645 80.7907C91.1438 80.8501 91.1636 80.6918 91.0844 80.4544C91.0249 80.2368 91.0645 80.0785 91.1636 80.1379C91.2627 80.217 91.3617 79.9796 91.3617 79.6433C91.3815 79.3069 91.4806 78.9904 91.5797 78.9706C91.6985 78.931 91.7382 78.6739 91.6787 78.3771C91.6193 78.0605 91.6589 77.9023 91.7778 77.9814C91.8966 78.0605 91.9363 77.9023 91.8768 77.5857C91.8174 77.289 91.857 77.1109 91.9759 77.1901C92.075 77.2692 92.1344 77.0516 92.075 76.6954C92.0155 76.2998 92.0551 76.1217 92.1938 76.2206C92.3325 76.2998 92.3721 76.1217 92.2929 75.6271C92.2136 75.1919 92.2533 74.9347 92.3523 75.0138C92.4712 75.0732 92.5108 74.8358 92.4712 74.4401C92.4316 74.0642 92.4712 73.7674 92.5504 73.7674C92.6495 73.7674 92.7089 73.075 92.6891 72.244C92.6693 71.1757 92.7089 70.8789 92.808 71.2944C92.9071 71.6307 92.9269 71.0966 92.8476 70.1074C92.7882 69.1182 92.7288 67.6146 92.7288 66.7441C92.7288 65.8736 92.6495 65.102 92.5504 65.0427C92.4514 64.9635 92.3721 64.37 92.3523 63.7171C92.3325 63.0445 92.2533 62.629 92.174 62.7675C92.075 62.8862 92.0353 62.7081 92.075 62.352C92.1344 61.9761 92.075 61.7585 91.9759 61.8376C91.857 61.9168 91.8174 61.7387 91.8768 61.442C91.9363 61.1254 91.8966 60.9671 91.7778 61.0463C91.6589 61.1254 91.6193 60.9671 91.6787 60.6506C91.7382 60.3538 91.6985 60.0966 91.5797 60.0571C91.4806 60.0373 91.3815 59.7207 91.3617 59.3844C91.3617 59.0481 91.2627 58.8107 91.1636 58.8898C91.0645 58.9492 91.0249 58.7909 91.0844 58.5733C91.1636 58.2963 91.124 58.1776 90.9853 58.2765C90.8664 58.3557 90.8268 58.2369 90.8862 57.9798C90.9655 57.7423 90.9259 57.5841 90.8268 57.6632C90.6683 57.7621 90.5692 57.4258 90.5891 56.8125C90.6089 56.674 90.5296 56.6147 90.4306 56.674C90.2721 56.7729 90.173 56.4366 90.1928 55.8233C90.2126 55.6848 90.1136 55.6255 89.9947 55.7046C89.856 55.7837 89.8362 55.7046 89.9353 55.4474C90.0145 55.2496 90.0145 55.1506 89.9551 55.21C89.757 55.388 88.2711 52.3809 88.4097 52.1237C88.4692 52.005 88.4692 51.9654 88.3701 52.0445C88.1522 52.2622 87.6173 51.4708 87.7956 51.174C87.8748 51.0356 87.855 51.0158 87.7163 51.0949C87.4984 51.2334 87.3795 50.9564 87.4786 50.5212C87.4984 50.4025 87.439 50.3827 87.3597 50.4816C87.1616 50.6597 85.6757 48.4241 85.8342 48.1867C85.8936 48.068 85.854 48.0482 85.7351 48.1273C85.5172 48.2658 85.3983 48.0086 85.4776 47.5931C85.4974 47.4942 85.4181 47.4744 85.3191 47.5338C85.121 47.6525 84.804 47.0985 84.8832 46.7622C84.9228 46.6435 84.8634 46.6237 84.7842 46.7029C84.586 46.9205 83.6747 45.6543 83.7936 45.3378C83.853 45.1993 83.7936 45.0806 83.6945 45.0806C83.5756 45.0806 83.5162 44.9025 83.5756 44.6849C83.6351 44.4277 83.5954 44.3288 83.4568 44.4277C83.3379 44.5068 83.2983 44.3881 83.3775 44.1111C83.4369 43.854 83.4369 43.7155 83.3577 43.7748C83.1992 43.9529 82.3077 41.0842 82.4265 40.7676C82.486 40.6094 82.4265 40.5698 82.2879 40.6489C82.1492 40.7479 82.1095 40.6292 82.169 40.2533C82.2284 39.9763 82.2086 39.7389 82.1294 39.7389C82.0501 39.7389 81.9312 39.541 81.8718 39.3036C81.7331 38.8288 82.2086 38.1364 82.585 38.2155C82.7039 38.2353 82.803 38.1562 82.8228 38.0572C82.8426 37.8 85.5568 35.0896 85.7351 35.149C85.8342 35.1688 85.8738 35.1292 85.854 35.0303C85.7946 34.7533 86.1314 34.1993 86.3097 34.3181C86.4087 34.3774 86.488 34.3576 86.4682 34.2587C86.3889 33.8432 86.5078 33.586 86.7257 33.7245C86.8644 33.8037 86.8842 33.7839 86.805 33.6454C86.6465 33.3684 87.1616 32.5573 87.3597 32.7551C87.439 32.8343 87.439 32.7353 87.3597 32.5375C87.2607 32.2803 87.2805 32.2012 87.4192 32.2803C87.538 32.3594 87.6371 32.3001 87.6173 32.1616C87.5975 31.5483 87.6965 31.212 87.855 31.3109C87.9541 31.39 87.9937 31.2317 87.9144 30.9943C87.855 30.7569 87.8946 30.6184 88.0135 30.6976C88.1126 30.7767 88.172 30.5591 88.1126 30.1832C88.0729 29.8271 88.1126 29.649 88.2116 29.7875C88.2909 29.9062 88.3701 28.9566 88.3701 27.6706C88.3701 26.3847 88.2909 25.435 88.2116 25.5537C88.1126 25.6922 88.0729 25.4746 88.1126 25.0591C88.1522 24.6437 88.1126 24.3865 87.9937 24.4458C87.8946 24.5052 87.855 24.3469 87.9144 24.0501C87.9739 23.7534 87.9541 23.5753 87.8748 23.6149C87.6767 23.7336 87.439 22.5466 87.6173 22.2696C87.6965 22.1509 87.6371 22.1311 87.4786 22.23C87.2805 22.3487 87.2408 22.2894 87.3201 21.9728C87.3993 21.6958 87.3597 21.5771 87.221 21.6761C87.1022 21.7552 87.0625 21.6365 87.122 21.3793C87.2012 21.1419 87.1616 20.944 87.0427 20.944C86.9239 20.944 86.904 20.8056 86.9635 20.6275C87.0427 20.4297 87.0031 20.3703 86.8446 20.4692C86.7059 20.5681 86.6663 20.489 86.7257 20.2318C86.7852 20.0142 86.7059 19.7174 86.5474 19.5789C86.3889 19.4405 86.3097 19.1437 86.3493 18.9459C86.4087 18.7282 86.3889 18.6095 86.3097 18.6491C86.1116 18.7876 85.6559 17.007 85.8144 16.7498C85.8936 16.6311 85.854 16.5916 85.7549 16.6509C85.4974 16.8092 85.2596 15.7606 85.4181 15.266C85.5172 14.9693 85.4974 14.9495 85.3191 15.2067C85.1408 15.4441 85.1012 15.4045 85.1012 14.9891C85.1012 14.6725 84.9823 14.4747 84.804 14.4747C84.6455 14.4747 84.487 14.534 84.487 14.5934ZM58.8107 26.6221C58.3352 26.6616 57.5824 26.6616 57.1267 26.6221C56.6512 26.5825 57.0276 26.5429 57.9588 26.5429C58.8899 26.5429 59.2664 26.5825 58.8107 26.6221ZM35.2345 94.4417C35.3137 94.3824 35.3335 94.4022 35.2741 94.4813C35.2147 94.5406 35.2741 94.7187 35.393 94.877C35.9279 95.4903 35.393 95.055 34.5807 94.2043C33.9863 93.5712 33.9269 93.4723 34.4024 93.9076C34.7788 94.2637 35.1552 94.5011 35.2345 94.4417Z" fill="#154015"/>
<path d="M88.5285 27.7694C88.5285 28.2047 88.5681 28.363 88.6077 28.1058C88.6474 27.8684 88.6474 27.5123 88.6077 27.3144C88.5483 27.1364 88.5087 27.3342 88.5285 27.7694Z" fill="#154015"/>
<path d="M46.7848 41.0843C46.9235 41.1634 46.448 41.2228 45.7348 41.2426C45.0216 41.2426 44.3876 41.3415 44.3282 41.4404C44.2489 41.5393 43.9319 41.6382 43.5951 41.658C43.2781 41.6778 42.9809 41.7965 42.9413 41.8954C42.9017 41.9944 42.763 42.0537 42.6243 41.9944C42.4658 41.935 42.2281 42.0339 42.0498 42.1922C41.8913 42.3505 41.713 42.4296 41.6337 42.3703C41.5743 42.2911 41.5149 42.3505 41.5149 42.4692C41.5149 42.5879 41.3762 42.6472 41.2177 42.5879C41.0592 42.5087 40.8809 42.6077 40.8016 42.7857C40.7422 42.9638 40.6035 43.0429 40.5045 42.9836C40.4054 42.9242 40.3261 42.9836 40.3261 43.1023C40.3261 43.221 40.2271 43.2605 40.128 43.2012C40.0092 43.1418 39.8705 43.221 39.811 43.3792C39.7516 43.5573 39.6129 43.6562 39.5139 43.5969C39.4346 43.5375 39.2563 43.676 39.1374 43.8936C39.0186 44.1113 38.8403 44.2497 38.761 44.2102C38.6818 44.1508 38.1666 44.5663 37.6317 45.1202C37.0968 45.6742 36.7996 46.0699 36.9581 45.9907C37.1166 45.9116 37.0374 46.0303 36.76 46.2479C36.4826 46.4656 36.3439 46.6634 36.443 46.6634C36.5619 46.6634 36.4628 46.8019 36.2449 46.9602C36.0468 47.1184 35.9279 47.2569 36.027 47.2569C36.1062 47.2569 35.9873 47.435 35.7496 47.6724C35.5317 47.89 35.393 48.2065 35.4524 48.3648C35.5118 48.5231 35.4722 48.6418 35.3533 48.6418C35.2345 48.6418 35.1949 48.7209 35.2543 48.8199C35.3335 48.9188 35.2939 49.0375 35.175 49.077C35.076 49.0968 34.9571 49.354 34.9373 49.631C34.8977 49.908 34.7986 50.185 34.6996 50.2641C34.6005 50.3234 34.5014 50.6993 34.5014 51.095C34.4816 51.4907 34.4222 51.8072 34.3429 51.8072C34.2439 51.8072 34.1844 52.0051 34.1844 52.2425C34.1844 52.4799 33.8476 53.0339 33.4316 53.4691C33.0353 53.8846 32.8372 54.1813 32.9957 54.0824C33.1542 54.0033 33.0353 54.1813 32.6985 54.4781C32.3816 54.7551 32.2429 54.9529 32.4014 54.8738C32.5599 54.7946 32.5202 54.8936 32.3023 55.0716C32.0844 55.2497 31.9259 55.4871 31.9457 55.586C31.9853 55.6849 31.9259 55.764 31.807 55.764C31.5495 55.764 30.7768 57.3072 30.9155 57.5248C30.9749 57.6237 30.9155 57.7425 30.7966 57.782C30.6579 57.8216 30.5589 58.1381 30.539 58.4745C30.539 58.8108 30.44 59.0482 30.3409 58.9888C30.2419 58.9097 30.2221 59.0878 30.3013 59.3845C30.3607 59.6615 30.3409 59.9583 30.2221 60.0176C30.0041 60.1561 29.9447 63.3413 30.1626 63.559C30.2419 63.6183 30.3211 64.1129 30.3607 64.6273C30.3805 65.1417 30.4994 65.5769 30.5985 65.6165C30.6975 65.6561 30.7372 65.8143 30.6777 65.9726C30.6183 66.1309 30.6579 66.2496 30.7372 66.2496C30.8362 66.2496 30.9353 66.487 30.9551 66.764C30.9551 67.0607 31.0938 67.3575 31.2523 67.4564C31.391 67.5553 31.4504 67.6345 31.3711 67.6345C31.2919 67.6345 31.3117 67.8719 31.4108 68.1489C31.6287 68.7028 31.4702 69.237 31.2126 68.8215C31.1334 68.683 30.8362 68.5643 30.5589 68.5643C30.2815 68.5445 30.1032 68.4456 30.1824 68.3467C30.2419 68.2478 30.1428 68.2082 29.9645 68.2873C29.7862 68.3467 29.6277 68.3071 29.5881 68.2082C29.5484 68.1093 29.2513 67.9906 28.9343 67.9708C28.5975 67.951 28.2805 67.8521 28.221 67.7532C28.1418 67.6543 27.805 67.5751 27.4682 67.5553C27.1314 67.5553 26.854 67.4762 26.854 67.3971C26.854 67.3179 26.6559 67.2586 26.4182 67.2784C26.0021 67.3179 25.9625 67.3971 26.0219 68.3071C26.0615 68.8611 26.1408 69.4546 26.2002 69.6129C26.2597 69.7711 26.3389 70.3844 26.3785 70.978C26.4182 71.5715 26.537 72.1452 26.6361 72.2441C26.7351 72.3431 26.7748 72.5607 26.7153 72.6992C26.6559 72.8575 26.6955 72.9762 26.7748 72.9762C26.8738 72.9762 26.9729 73.3125 26.9927 73.7082C27.0125 74.1038 27.0918 74.4797 27.1908 74.5391C27.2701 74.5984 27.3493 74.7369 27.3493 74.8556C27.3691 75.37 27.7059 76.3394 27.8446 76.3394C27.9437 76.3394 27.9833 76.4581 27.9239 76.6164C27.8644 76.7549 27.9437 77.0121 28.1022 77.1506C28.2409 77.3089 28.3399 77.5265 28.3003 77.6452C28.2607 77.7837 28.3597 78.0013 28.5182 78.1794C28.6767 78.3376 28.756 78.5157 28.6965 78.5948C28.6173 78.6542 28.6767 78.7135 28.8154 78.7135C28.9541 78.7135 29.0135 78.7927 28.9343 78.8916C28.8748 78.9905 28.9541 79.1883 29.0928 79.3466C29.2315 79.4851 29.3701 79.6829 29.39 79.8016C29.5088 80.4347 29.6871 80.6919 29.8852 80.5732C30.0239 80.4941 30.0636 80.4941 29.9843 80.593C29.806 80.7908 30.3607 81.879 30.6381 81.879C30.757 81.879 30.7966 81.9581 30.7372 82.0372C30.6777 82.1362 30.8957 82.4923 31.2126 82.8286C31.5296 83.1847 31.7278 83.4617 31.6485 83.4617C31.5693 83.4815 31.7278 83.6595 32.0051 83.8772C32.2825 84.1146 32.5004 84.3718 32.5004 84.4707C32.5004 84.7279 36.9779 89.0408 37.1166 88.9221C37.176 88.8627 37.3544 88.9814 37.493 89.1991C37.6515 89.4167 37.8497 89.5552 37.9487 89.4958C38.028 89.4365 38.1666 89.5354 38.2261 89.7134C38.2855 89.8717 38.4242 89.9509 38.5431 89.8915C38.6421 89.8321 38.7412 89.8519 38.7412 89.9509C38.7412 90.0498 38.9591 90.2872 39.2365 90.4652C40.1875 91.0983 39.712 90.3861 38.0874 88.7836C37.1959 87.8933 36.6015 87.2207 36.76 87.2998C36.9185 87.3789 36.6213 87.0228 36.0666 86.5084C35.5317 85.994 35.2147 85.6379 35.3732 85.7171C35.5317 85.7962 35.4326 85.6379 35.1354 85.3807C34.8382 85.1038 34.6401 84.8466 34.6996 84.807C34.7392 84.7674 34.4816 84.3915 34.1052 83.9959C33.7486 83.6002 33.4712 83.2441 33.5108 83.2045C33.5703 83.1649 33.3722 82.888 33.1146 82.611C32.8372 82.3142 32.6589 82.0768 32.7184 82.0768C32.7778 82.0768 32.6589 81.7998 32.4608 81.4833C32.2825 81.147 32.0448 80.8898 31.9457 80.8898C31.8664 80.8898 31.8268 80.8106 31.9061 80.7117C31.9655 80.6128 31.8863 80.415 31.7476 80.2567C31.6089 80.1182 31.4702 79.9006 31.4504 79.8016C31.3513 79.2675 30.7174 77.7243 30.5787 77.7243C30.4994 77.7243 30.4994 77.5858 30.5589 77.388C30.6381 77.1704 30.6183 77.111 30.4598 77.2099C30.3211 77.2891 30.2617 77.2495 30.3409 77.0714C30.3805 76.933 30.3211 76.5373 30.2022 76.2207C30.0636 75.9042 29.9843 75.5876 29.9843 75.4887C30.0041 75.4096 29.9249 74.9743 29.806 74.4995C29.6871 74.0445 29.6079 73.3718 29.6277 72.9959C29.6277 72.62 29.5286 72.2441 29.4098 72.165C29.0531 71.9474 29.6673 71.3934 30.0437 71.5913C30.2022 71.6902 30.6381 71.7891 31.0145 71.8287C31.391 71.8485 31.7476 71.9276 31.807 71.987C31.9061 72.0859 33.7288 72.7783 34.0656 72.8377C34.1646 72.8575 34.4222 73.0355 34.6203 73.2333C34.8184 73.4312 35.076 73.5301 35.1552 73.4708C35.2543 73.4312 35.393 73.5103 35.4524 73.6884C35.5118 73.8467 35.6505 73.9456 35.7496 73.8862C35.8486 73.8269 35.9873 73.906 36.0468 74.0841C36.126 74.2621 36.2251 74.361 36.2845 74.3017C36.3638 74.2423 36.5817 74.3808 36.7996 74.6182C37.0176 74.8556 37.1166 74.915 37.0374 74.7567C36.9581 74.5984 37.2355 74.8359 37.6317 75.3107C38.0478 75.7657 38.444 76.102 38.5233 76.0625C38.6025 76.0031 39.1176 76.4186 39.6525 76.9725C40.1875 77.5265 40.4846 77.9024 40.3261 77.8232C40.0092 77.6452 41.6535 79.5247 42.3866 80.1775C42.6045 80.3754 42.7828 80.6128 42.763 80.7117C42.7234 80.8106 42.9215 81.0283 43.1989 81.2063C43.4762 81.3844 43.6546 81.602 43.5951 81.6811C43.5357 81.78 43.6942 81.9977 43.9319 82.1559C44.1697 82.334 44.2885 82.4725 44.1895 82.4725C44.0706 82.4923 44.2687 82.7099 44.5857 82.9869C44.9225 83.2836 45.0414 83.4419 44.8829 83.3628C44.7244 83.3034 44.8036 83.4221 45.081 83.6595C45.3584 83.8969 45.5763 84.1937 45.5763 84.2926C45.5763 84.3915 45.7546 84.6092 45.9527 84.7674C46.1707 84.9257 46.2697 85.0444 46.1509 85.0444C46.0518 85.0642 46.2499 85.2818 46.5669 85.5588C46.9037 85.8556 47.0226 86.0138 46.8641 85.9347C46.7056 85.8556 46.8443 86.0534 47.1613 86.3502C47.4981 86.6469 47.7556 86.9635 47.7556 87.0228C47.7556 87.102 48.4094 87.8142 49.2019 88.6055C49.9746 89.3969 50.6284 89.9706 50.6284 89.8915C50.6284 89.7926 50.767 89.8915 50.9255 90.1091C51.084 90.307 51.2227 90.4059 51.2227 90.307C51.2227 90.1883 51.3416 90.2674 51.4803 90.4652C51.619 90.6631 51.9756 90.8411 52.2728 90.8411C52.5699 90.8609 52.8077 90.9203 52.8077 90.9796C52.8077 91.0588 53.2634 91.0983 53.7983 91.0983C54.353 91.0983 54.7889 91.039 54.7889 90.9401C54.7889 90.8609 54.9077 90.8411 55.0662 90.9005C55.2247 90.9598 55.403 90.9203 55.4823 90.8016C55.6012 90.6037 55.1851 90.5048 54.1549 90.5048C53.9766 90.5048 53.8577 90.4455 53.9171 90.3465C53.9766 90.2674 53.8775 90.1883 53.719 90.1883C53.5407 90.1883 53.3426 90.1685 53.2634 90.1289C52.9464 90.03 50.1529 87.5768 50.0538 87.3196C49.8953 86.8843 49.1028 85.8358 49.0038 85.9347C48.9642 85.994 48.9047 85.9149 48.9047 85.7764C48.9047 85.4797 48.2509 84.4509 48.0726 84.4509C47.9934 84.4509 47.9141 84.3322 47.9141 84.1937C47.9141 83.8574 47.2603 82.8682 47.0226 82.8682C46.9235 82.8682 46.8839 82.789 46.9632 82.6703C47.0226 82.5714 46.9037 82.3142 46.6858 82.0966C46.4679 81.879 46.349 81.6613 46.4084 81.602C46.4679 81.5426 46.3688 81.4437 46.1905 81.3646C46.0122 81.3052 45.9329 81.1667 45.9924 81.0678C46.0518 80.9689 45.9527 80.8304 45.7942 80.7711C45.6159 80.7117 45.5367 80.5732 45.5961 80.4743C45.6556 80.3754 45.5565 80.2369 45.398 80.1775C45.2197 80.1182 45.1206 79.9797 45.1801 79.9006C45.2395 79.8016 45.1206 79.6434 44.9423 79.5247C44.7442 79.406 44.6848 79.307 44.7838 79.307C44.9027 79.307 44.764 79.1092 44.4867 78.8916C44.2093 78.674 44.13 78.5355 44.2885 78.6146C44.447 78.6937 44.3678 78.5553 44.0904 78.3178C43.8131 78.0804 43.5951 77.7837 43.5951 77.6848C43.5951 77.5858 43.3178 77.2693 43.0008 76.9725C42.664 76.6758 42.5253 76.5175 42.7036 76.6164C42.8621 76.7351 42.3272 76.1218 41.5149 75.2909C40.0488 73.7675 39.7912 73.5499 40.0488 74.0049C40.128 74.1434 39.9101 73.9456 39.5733 73.5697C39.2365 73.1938 38.9591 72.9564 38.9393 73.0751C38.9393 73.174 38.8006 73.0553 38.6223 72.8179C38.4638 72.5805 38.2459 72.4222 38.1468 72.4816C38.0676 72.5409 37.9289 72.442 37.8695 72.2639C37.81 72.1057 37.6713 72.0067 37.5723 72.0661C37.4732 72.1254 37.3345 72.0463 37.2751 71.8682C37.2157 71.71 37.077 71.6111 36.9779 71.6704C36.8789 71.7298 36.7402 71.6506 36.6807 71.4726C36.6213 71.3143 36.4826 71.2352 36.3638 71.2945C36.2647 71.3539 36.1656 71.3341 36.1656 71.2154C36.1656 70.978 34.5807 70.1273 34.5807 70.3449C34.5807 70.4438 34.5014 70.4042 34.4222 70.2657C34.3429 70.147 34.1448 70.0086 33.9863 69.969C33.8278 69.9294 33.5703 69.7909 33.4118 69.6524C33.2731 69.5139 33.0353 69.4348 32.9165 69.4744C32.7976 69.5337 32.5995 69.4546 32.4608 69.3161C32.2825 69.1183 32.3023 69.0391 32.6193 68.96C32.8174 68.9006 32.9957 68.9204 32.9957 69.0193C32.9957 69.1974 34.0061 69.415 34.2241 69.2963C34.3826 69.1974 33.7882 67.773 33.5306 67.674C33.4514 67.6345 33.4316 67.5355 33.491 67.4366C33.5703 67.2981 33.4514 66.764 33.0552 65.6561C32.8769 65.1219 32.8174 64.014 32.8174 61.6003C32.8372 58.4151 32.857 58.059 33.0353 57.9205C33.1344 57.8612 33.2137 57.4457 33.2533 56.9907C33.2731 56.5356 33.3523 56.1597 33.4514 56.1597C33.5306 56.1597 33.5901 56.0212 33.5901 55.863C33.5901 55.3288 33.9467 55.5464 34.0854 56.1597C34.1646 56.4763 34.3033 56.7533 34.3826 56.7533C34.4816 56.7533 34.5212 56.8917 34.4618 57.05C34.3826 57.2083 34.442 57.3468 34.5807 57.3468C34.6996 57.3468 34.7392 57.4259 34.6797 57.5446C34.6203 57.6435 34.6599 57.7425 34.7788 57.7425C34.8977 57.7425 34.9571 57.8216 34.8779 57.9403C34.8184 58.0392 34.9373 58.2964 35.1552 58.514C35.3732 58.7317 35.492 58.9493 35.4326 59.0086C35.3732 59.068 35.4722 59.1669 35.6505 59.246C35.8288 59.3054 35.9279 59.4241 35.8685 59.5032C35.8288 59.5824 36.1854 59.978 36.6411 60.3737L37.5129 61.086L37.2949 60.4133C37.176 60.0374 37.0374 59.7209 36.9779 59.7209C36.9185 59.7209 36.8392 59.3845 36.8194 58.9888C36.7996 58.5932 36.7006 58.2173 36.6213 58.1579C36.5223 58.0986 36.4232 56.8324 36.3836 55.3684C36.3638 53.9044 36.2845 52.6382 36.2251 52.559C36.1854 52.4601 36.2449 52.4008 36.3836 52.4008C36.5024 52.4008 36.5619 52.2425 36.5024 52.0051C36.443 51.7875 36.4628 51.6094 36.5421 51.6094C36.6213 51.6094 36.7996 51.2335 36.9383 50.7587C37.077 50.3037 37.3742 49.631 37.5921 49.2749C37.81 48.9386 37.9091 48.6418 37.8298 48.6418C37.7506 48.6418 37.8497 48.5231 38.0676 48.3648C38.2657 48.2065 38.444 48.0087 38.444 47.9098C38.444 47.8109 38.8006 47.3954 39.2365 46.9602C39.6525 46.5249 39.9497 46.3073 39.8507 46.4656C39.7714 46.6238 39.8903 46.5645 40.1082 46.3073C40.3261 46.0501 40.5243 45.872 40.5639 45.8918C40.7422 45.971 42.0696 45.1796 41.9904 45.0411C41.9309 44.962 42.0102 44.9422 42.1687 45.0015C42.3272 45.0609 42.5847 44.9818 42.7234 44.8433C42.8819 44.7048 43.0998 44.5861 43.1989 44.5663C43.7536 44.5465 44.8829 44.23 44.8829 44.0915C44.8829 44.0123 46.349 43.953 48.1519 43.953C49.9548 43.953 51.4208 44.0123 51.4208 44.0915C51.4208 44.2102 52.669 44.5069 53.5011 44.5861C53.62 44.6059 53.8973 44.7246 54.1549 44.8433C54.3926 44.9818 54.6898 45.0411 54.7889 44.9818C54.9077 44.9224 54.987 44.9422 54.987 45.0411C54.987 45.2192 55.9182 45.5753 56.2351 45.5159C56.3144 45.4961 56.3738 45.5555 56.3738 45.6544C56.3738 45.8127 57.4239 46.3271 57.6616 46.2875C57.721 46.2677 57.9588 46.4458 58.1965 46.6634C58.4343 46.881 58.6918 47.0591 58.7909 47.0591C59.2069 47.0591 59.8805 47.5735 59.7022 47.7713C59.6428 47.8109 58.355 47.89 56.8295 47.9296C55.304 47.9494 53.937 48.0681 53.7785 48.167C53.62 48.2461 53.2832 48.3055 53.0256 48.2659C52.7681 48.2461 52.6096 48.2857 52.669 48.3846C52.7284 48.4637 52.4114 48.5627 51.9756 48.5824C51.5199 48.5824 51.1237 48.6814 51.0444 48.7803C50.985 48.8594 50.6086 48.9583 50.2321 48.9979C49.8557 49.0177 49.4991 49.1166 49.4396 49.1957C49.3802 49.2749 49.1227 49.354 48.8453 49.3936C48.5679 49.4134 48.3104 49.5321 48.2906 49.631C48.2509 49.7497 48.1519 49.7893 48.0528 49.7299C47.8349 49.5914 46.8641 50.0267 46.8641 50.2641C46.8641 50.363 46.7848 50.3828 46.666 50.3234C46.5669 50.2641 46.4679 50.3037 46.4679 50.4224C46.4679 50.5411 46.3886 50.5806 46.2697 50.5213C46.1707 50.4619 45.8537 50.6202 45.5763 50.8972C45.2989 51.1742 45.081 51.3324 45.081 51.2731C45.081 51.2137 44.5461 51.7083 43.8923 52.381C43.2385 53.0734 42.7432 53.6867 42.8026 53.7856C42.8621 53.8648 42.7828 53.9835 42.6243 54.0428C42.3073 54.1813 41.6932 55.863 41.8319 56.2389C41.8913 56.3971 41.8517 56.5752 41.7328 56.6543C41.4951 56.7928 41.4356 59.1867 41.6535 59.4043C41.7328 59.4834 41.812 59.8 41.8319 60.1165C41.8913 61.2047 42.8026 62.7676 44.2885 64.2514C45.081 65.0625 45.6754 65.5967 45.5961 65.4384C45.5169 65.2802 45.6159 65.3593 45.8141 65.5967C46.0122 65.8341 46.3094 66.0517 46.4679 66.0913C46.6263 66.1309 46.8839 66.2694 47.0226 66.4079C47.1811 66.5463 47.3594 66.6057 47.4585 66.5463C47.5575 66.487 47.6566 66.5463 47.6962 66.665C47.7358 66.7838 48.0132 66.9025 48.3104 66.9025C48.6075 66.9222 48.8453 67.0212 48.8453 67.1003C48.8453 67.1794 48.9642 67.2388 49.1028 67.219C49.2217 67.1992 49.4991 67.2388 49.6972 67.3377C49.8755 67.4168 50.2123 67.4366 50.4302 67.3773C50.6482 67.3179 50.8265 67.3575 50.8265 67.4564C50.8265 67.5553 51.5991 67.6345 52.5303 67.6345C53.4813 67.6345 54.1747 67.5553 54.1153 67.4564C54.036 67.3575 54.1747 67.3179 54.3926 67.3773C54.6106 67.4366 54.9474 67.4168 55.1257 67.3377C55.3238 67.2388 55.6012 67.1992 55.7398 67.219C55.8587 67.2388 55.9776 67.1794 55.9776 67.1003C55.9776 67.0212 56.255 66.9222 56.5918 66.9222C56.9286 66.9025 57.2654 66.8233 57.3446 66.7244C57.4041 66.6255 57.6814 66.5266 57.9588 66.487C58.2362 66.4672 58.4937 66.3485 58.5135 66.2496C58.5531 66.1309 58.672 66.0913 58.7711 66.1704C58.8701 66.2298 58.9494 66.1704 58.9494 66.0517C58.9494 65.933 59.0286 65.8737 59.1277 65.9528C59.2267 66.0122 59.4447 65.933 59.6032 65.7748C59.7617 65.6165 59.94 65.5374 60.0192 65.5967C60.0787 65.6758 60.1381 65.5967 60.1381 65.4582C60.1381 65.3197 60.1975 65.2604 60.2768 65.3197C60.3362 65.3989 60.5145 65.3 60.673 65.1021C60.8513 64.9043 60.891 64.8845 60.8117 65.0625C60.7325 65.2208 61.1683 64.8449 61.7825 64.2118C62.4165 63.5787 62.8722 62.9852 62.8127 62.8665C62.7335 62.7676 62.7929 62.6885 62.9118 62.6885C63.0306 62.6885 63.0901 62.6093 63.0306 62.5104C62.9514 62.4115 63.0306 62.2928 63.1495 62.2532C63.3278 62.1939 63.4071 61.6597 63.4071 60.5122C63.4071 59.3647 63.3278 58.8306 63.1495 58.7712C63.0306 58.7317 62.9514 58.6129 63.0306 58.514C63.0901 58.4151 63.0306 58.336 62.9118 58.336C62.7929 58.336 62.7533 58.2568 62.8127 58.1381C62.9514 57.9007 61.1287 55.9421 60.891 56.0806C60.8117 56.1399 60.7325 56.1004 60.7325 55.9817C60.7325 55.7245 59.5834 55.1112 59.3654 55.2694C59.2664 55.3288 59.1475 55.2694 59.1079 55.1507C59.0683 55.0123 58.7513 54.9133 58.3946 54.8936C58.038 54.8936 57.7607 54.8144 57.7607 54.7551C57.7607 54.6957 56.8691 54.6364 55.7795 54.6364C54.6898 54.6166 53.7983 54.6759 53.7983 54.7551C53.7983 54.8144 53.4813 54.8738 53.085 54.8936C52.6888 54.8936 52.3124 54.9925 52.2529 55.0914C52.1737 55.1903 51.8963 55.2892 51.619 55.3288C51.3614 55.3486 51.0642 55.4871 50.985 55.6256C50.9057 55.7443 50.8265 55.7838 50.8265 55.6651C50.8265 55.5662 50.4699 55.863 50.0142 56.318C49.5585 56.8126 49.2613 57.3072 49.3208 57.4655C49.3802 57.6237 49.3406 57.7425 49.2415 57.7425C49.1227 57.7425 49.0434 58.1381 49.0434 58.6327C49.0434 59.1273 49.1227 59.523 49.2415 59.523C49.3406 59.523 49.3802 59.6417 49.3208 59.8C49.2613 59.9583 49.4198 60.2748 49.6774 60.5122C49.9349 60.7694 49.9944 60.8881 49.8359 60.809C49.6774 60.7298 49.8557 60.9475 50.2321 61.3234C50.6086 61.6795 50.985 61.9564 51.084 61.9367C51.1633 61.9169 51.2227 61.9762 51.2227 62.0554C51.2227 62.2928 52.2133 62.7082 52.4313 62.5895C52.5303 62.5104 52.6096 62.5698 52.6096 62.6687C52.6096 62.9259 53.4813 62.9259 54.1945 62.6687C54.6502 62.5104 54.6304 62.5104 54.0558 62.5698C53.6992 62.5895 53.402 62.55 53.402 62.4708C53.402 62.3323 52.4709 62.0356 52.352 62.1345C52.2529 62.2334 50.8265 60.5716 50.8265 60.3342C50.8265 60.2155 50.767 60.1165 50.6878 60.1165C50.4501 60.1165 50.5293 59.0878 50.8067 58.5734C50.9255 58.336 50.985 58.1381 50.9454 58.1381C50.8265 58.1381 51.6784 57.2281 51.8171 57.2083C52.2331 57.1489 52.7879 56.872 52.7086 56.7533C52.669 56.6741 53.6398 56.6148 54.8879 56.6148C56.1361 56.6345 57.1663 56.6939 57.1663 56.773C57.1663 56.9115 58.2163 57.2083 58.4739 57.1489C58.5531 57.1291 58.672 57.1885 58.7315 57.2874C58.7909 57.3666 59.1871 57.7029 59.6032 57.9996C60.9702 59.0284 61.2674 60.1759 60.4551 61.3629C60.1975 61.7388 60.039 62.1345 60.0985 62.2136C60.1777 62.2928 60.1183 62.2928 59.9796 62.2136C59.8409 62.1345 59.6824 62.1939 59.623 62.3719C59.5636 62.55 59.4249 62.6489 59.3456 62.5895C59.2466 62.5302 59.1079 62.6093 59.0088 62.7676C58.9296 62.9259 58.7909 63.0644 58.6918 63.0644C58.3352 63.0644 56.2748 63.7766 56.2153 63.9151C56.1757 64.014 55.9182 64.014 55.6606 63.9546C55.403 63.8953 55.1851 63.9151 55.1851 63.9942C55.1851 64.0931 54.1747 64.1723 52.9265 64.1723C51.6784 64.1723 50.7076 64.0931 50.767 64.014C50.8265 63.9151 50.7076 63.8755 50.5095 63.8953C50.2916 63.9349 49.6774 63.737 49.1028 63.4996C48.5283 63.2424 48.0132 63.0644 47.9339 63.0841C47.8547 63.1039 47.7358 63.0248 47.6764 62.9259C47.6169 62.8269 47.1613 62.4115 46.666 61.996C46.1707 61.5806 45.7942 61.2244 45.8141 61.1849C45.8933 61.0662 45.1999 59.6417 45.0612 59.5626C44.982 59.523 44.982 59.3252 45.0414 59.0878C45.1008 58.8306 45.0612 58.7119 44.9423 58.791C44.8235 58.8701 44.8036 58.514 44.9027 57.8018C44.982 57.1885 45.0216 56.6148 44.9621 56.5356C44.9225 56.4565 44.9621 56.3576 45.0612 56.318C45.1603 56.2982 45.2791 56.0806 45.3188 55.863C45.3386 55.6453 45.4376 55.4277 45.4971 55.3684C45.5565 55.309 46.0122 54.8144 46.5075 54.2407C47.0226 53.6867 47.4783 53.2713 47.5377 53.3306C47.5971 53.39 47.6962 53.291 47.7754 53.113C47.8349 52.9349 47.9736 52.836 48.0528 52.8954C48.1519 52.9547 48.35 52.8756 48.5085 52.7173C48.667 52.559 48.8453 52.4799 48.9245 52.5392C48.984 52.6184 49.0434 52.559 49.0434 52.4205C49.0434 52.2821 49.1028 52.2227 49.2019 52.2623C49.2812 52.3216 49.5585 52.2623 49.8359 52.1436C50.1133 52.0447 50.4302 51.9259 50.5293 51.9062C50.6482 51.8864 51.2029 51.8072 51.7775 51.7281C52.3322 51.6292 52.8077 51.4907 52.8077 51.4313C52.8077 51.2731 59.5239 51.3126 59.94 51.4709C60.5145 51.6885 62.357 52.0051 62.5155 51.9062C62.6146 51.8468 62.7137 51.9062 62.7533 52.0051C62.7929 52.1238 63.0901 52.2425 63.4071 52.2623C63.7439 52.2821 64.0609 52.381 64.1203 52.4601C64.1996 52.559 64.4769 52.658 64.7741 52.658C65.0515 52.6777 65.2892 52.7767 65.2892 52.8756C65.2892 52.9745 65.3486 53.0141 65.4081 52.9349C65.4873 52.8756 65.6656 52.9547 65.8241 53.113C66.0024 53.2713 66.2402 53.3702 66.3987 53.3108C66.5374 53.2515 66.676 53.291 66.7157 53.3702C66.7949 53.568 69.0535 54.9925 69.0535 54.854C69.0535 54.7748 69.2318 54.9529 69.4695 55.2497C69.6875 55.5266 69.9648 55.764 70.0837 55.764C70.3214 55.764 71.2922 56.7533 71.0743 56.7533C70.995 56.773 71.1139 56.9115 71.3517 57.1094C71.5696 57.2874 71.7677 57.5248 71.7875 57.6435C71.8073 57.7425 71.946 57.9799 72.1045 58.1777C72.263 58.3558 72.3423 58.5536 72.2828 58.6129C72.2036 58.6723 72.263 58.7317 72.4017 58.7317C72.5404 58.7317 72.5998 58.8108 72.5404 58.9097C72.4611 59.0086 72.5206 59.345 72.6394 59.6615C72.8772 60.255 72.9961 62.8863 72.7979 62.8863C72.7187 62.8863 72.6196 63.1633 72.5404 63.4798C72.3621 64.4097 71.53 66.0517 70.6384 67.1992C70.1828 67.7927 69.9252 68.2082 70.0639 68.1291C70.1828 68.0499 69.5884 68.683 68.7365 69.5337C67.8648 70.3844 67.1119 71.0571 67.0327 71.0373C66.9534 71.0175 66.676 71.2747 66.3987 71.6111C66.1213 71.9474 65.8836 72.1452 65.8836 72.0463C65.8638 71.9672 65.6458 72.1452 65.3685 72.4816C65.0713 72.7981 64.9128 72.9366 64.992 72.7783C65.0515 72.62 64.9326 72.6992 64.7147 72.9564C64.4769 73.2136 64.2986 73.3323 64.2986 73.2531C64.2986 73.1542 64.1797 73.2136 64.0411 73.3916C63.9024 73.5697 63.7241 73.7082 63.6052 73.7279C63.5061 73.7477 63.3675 73.8862 63.3476 74.0643C63.2882 74.3215 63.3675 74.361 63.7043 74.2621C64.7345 73.9456 65.6656 73.4312 65.527 73.2729C65.4477 73.174 65.4873 73.174 65.626 73.2531C65.9232 73.4114 67.0723 72.8575 67.0723 72.5607C67.0723 72.442 67.1515 72.4024 67.2704 72.4816C67.3695 72.5409 67.627 72.4222 67.8648 72.1848C68.0827 71.9672 68.261 71.8485 68.261 71.9276C68.261 72.0265 68.3997 71.9078 68.5582 71.71C68.7167 71.4924 68.8554 71.3934 68.8554 71.5121C68.8554 71.6111 69.0931 71.4132 69.3705 71.0967C69.6478 70.7603 69.8063 70.6416 69.7271 70.7999C69.6478 70.9582 70.0837 70.6219 70.6979 70.0283C71.312 69.4348 71.7875 68.9006 71.7677 68.8215C71.7479 68.7424 71.946 68.4852 72.2234 68.2478C72.5008 67.9906 72.58 67.8719 72.4215 67.951C72.263 68.0301 72.3621 67.8521 72.6593 67.5553C72.9564 67.2388 73.1546 66.9222 73.1149 66.8431C73.0555 66.7442 73.0951 66.6453 73.1942 66.6057C73.2932 66.5859 73.4121 66.4079 73.4517 66.2496C73.4914 66.0913 73.63 65.8341 73.7687 65.6758C73.9074 65.5374 73.9867 65.3 73.9272 65.1417C73.8678 65.0032 73.9272 64.8647 74.0461 64.8251C74.165 64.7856 74.2838 64.4295 74.2838 64.0338C74.3036 63.6381 74.3829 63.3611 74.482 63.4403C74.581 63.4996 74.6008 63.282 74.5414 62.9259C74.4621 62.5895 74.5018 62.2532 74.6008 62.1939C74.8584 62.0356 74.8584 60.3737 74.6008 60.2155C74.482 60.1363 74.4423 59.9187 74.5018 59.7209C74.6404 59.2856 74.2244 57.5446 73.9867 57.5446C73.8876 57.5446 73.8678 57.4259 73.9272 57.2676C73.9867 57.1291 73.9074 56.872 73.7687 56.7335C73.63 56.5752 73.4914 56.318 73.4517 56.1597C73.4121 56.0015 73.2932 55.8234 73.1942 55.8036C73.0951 55.764 73.0555 55.6453 73.1347 55.5464C73.1942 55.4475 73.1347 55.3684 73.0159 55.3684C72.897 55.3684 72.8574 55.2694 72.9168 55.1705C72.9762 55.0518 72.897 54.9133 72.7385 54.854C72.5602 54.7946 72.4611 54.6561 72.5206 54.577C72.58 54.4781 72.4611 54.3198 72.2828 54.2011C72.0847 54.0824 72.0253 53.9835 72.1243 53.9835C72.2432 53.9835 72.0055 53.7065 71.629 53.3702C71.2526 53.0339 71.0743 52.836 71.2328 52.9151C71.3913 52.9943 71.213 52.7371 70.8564 52.3414C70.1431 51.5698 69.9252 51.4313 70.1629 51.8468C70.2224 51.9853 70.0837 51.8666 69.8261 51.5698C69.5686 51.2731 69.212 51.0159 69.0535 50.9763C68.895 50.9367 68.6771 50.818 68.5582 50.6796C68.4591 50.5411 68.2214 50.4224 68.0629 50.3828C67.9044 50.3432 67.6468 50.2047 67.5081 50.0662C67.3496 49.9278 67.1515 49.8684 67.0525 49.9278C66.9534 50.0069 66.8742 49.9475 66.8742 49.8091C66.8742 49.6706 66.8147 49.6112 66.7553 49.6903C66.676 49.7497 66.4977 49.6706 66.3392 49.5123C66.1609 49.354 65.943 49.2551 65.8043 49.2947C65.6854 49.3342 65.4675 49.2353 65.309 49.0968C65.1505 48.9386 64.8732 48.8594 64.675 48.899C64.4571 48.9583 64.2986 48.9386 64.2986 48.8396C64.2986 48.6616 62.5552 48.2065 62.3372 48.3253C62.1589 48.444 60.9108 47.3558 61.0494 47.2173C61.0891 47.158 60.7721 46.7227 60.3164 46.2479C59.8607 45.7731 59.6032 45.5555 59.7419 45.7731C59.8805 45.9907 59.7022 45.8522 59.3258 45.4764C58.7116 44.863 58.6918 44.7641 59.0088 44.6454C59.2069 44.5465 59.5437 44.5663 59.7419 44.685C59.94 44.7839 60.5343 44.9026 61.0693 44.9224C61.5844 44.962 62.0797 45.0609 62.1391 45.14C62.2184 45.2389 62.6146 45.3379 63.0703 45.3379C63.5061 45.3576 63.8033 45.4566 63.7439 45.5555C63.6844 45.6544 63.8231 45.694 64.0609 45.6346C64.2986 45.5753 64.4967 45.5951 64.5364 45.694C64.576 45.7929 64.8137 45.8918 65.0911 45.9116C65.3685 45.9512 65.6458 46.0501 65.7053 46.1292C65.7845 46.2281 66.0619 46.3271 66.3591 46.3271C66.6364 46.3468 66.8742 46.4458 66.8742 46.5249C66.8742 46.6238 66.9534 46.6436 67.0525 46.5843C67.1515 46.5051 67.2704 46.5447 67.31 46.6436C67.3298 46.7425 67.5478 46.8612 67.7657 46.9008C67.9836 46.9206 68.2016 47.0195 68.261 47.0789C68.4195 47.2767 70.0441 48.0681 70.0441 47.9494C70.0441 47.89 70.2422 48.0087 70.4799 48.2461C70.896 48.622 71.0941 48.7011 71.3517 48.5824C71.4111 48.5627 71.5498 48.7011 71.6488 48.899C71.7677 49.077 71.9262 49.1957 72.0253 49.1364C72.1045 49.077 72.2432 49.176 72.3026 49.354C72.3621 49.5123 72.5008 49.6112 72.5998 49.5519C72.6989 49.4925 72.9168 49.6706 73.1149 49.9475C73.2932 50.2245 73.4914 50.4026 73.5508 50.3432C73.6102 50.2839 73.8282 50.4619 74.0461 50.7191C74.2442 50.9961 74.482 51.1939 74.5612 51.1544C74.7395 51.095 76.8594 53.2317 76.8198 53.4295C76.7999 53.5087 77.0575 53.7856 77.3943 54.0626C77.7311 54.3396 77.9292 54.577 77.8302 54.577C77.7509 54.5968 77.8698 54.7551 78.1075 54.9529C78.3453 55.1507 78.484 55.3684 78.4245 55.4475C78.3651 55.5069 78.4642 55.6058 78.6425 55.6849C78.8208 55.7443 78.9 55.8828 78.8406 55.9817C78.7811 56.0806 78.8802 56.2191 79.0387 56.2784C79.217 56.3378 79.3161 56.4565 79.2566 56.5554C79.217 56.6345 79.3557 56.8917 79.5736 57.1094C79.7717 57.3468 79.9501 57.604 79.9501 57.6831C79.9501 58.1183 80.2076 58.5338 80.3859 58.4151C80.5246 58.336 80.5444 58.3755 80.4652 58.4942C80.3859 58.6129 80.5048 59.0482 80.7227 59.4637C81.0397 60.0968 81.119 60.1561 81.2576 59.8396C81.3369 59.6417 81.2973 59.4241 81.1586 59.345C81.0397 59.2658 80.9803 59.0482 81.0595 58.8701C81.119 58.6921 81.0991 58.5338 80.9803 58.5338C80.8614 58.5338 80.8218 58.3755 80.8812 58.1579C80.9406 57.9601 80.8812 57.7227 80.7623 57.6633C80.6633 57.5842 80.6038 57.4061 80.6831 57.2478C80.7425 57.0896 80.7029 56.9511 80.6237 56.9511C80.5246 56.9511 80.4255 56.7137 80.4057 56.4367C80.4057 56.1399 80.3067 55.863 80.2076 55.7838C80.1284 55.7245 80.0293 55.4475 79.9897 55.1705C79.9699 54.8936 79.851 54.6364 79.7519 54.6166C79.6331 54.577 79.5934 54.4583 79.6727 54.3594C79.7321 54.2605 79.6727 54.1813 79.5538 54.1813C79.4349 54.1813 79.3755 54.1022 79.4349 54.0231C79.5736 53.7856 78.6227 51.8072 78.3651 51.8072C78.2462 51.8072 78.1868 51.7281 78.266 51.6094C78.3255 51.5105 78.2066 51.2533 77.9887 51.0357C77.7707 50.818 77.6519 50.6004 77.7113 50.5411C77.7707 50.4817 77.6717 50.3828 77.4934 50.3037C77.3151 50.2443 77.1764 50.1058 77.1764 50.0069C77.1764 49.908 76.4433 49.0968 75.5518 48.2065C74.6801 47.3361 74.0065 46.7227 74.0857 46.881C74.165 47.0393 74.0857 46.9799 73.9074 46.7623C73.7291 46.5447 73.4914 46.3864 73.3923 46.4062C73.2932 46.4458 73.214 46.3864 73.214 46.2677C73.214 46.1688 72.8574 45.8918 72.4215 45.6742C71.9856 45.4566 71.629 45.3181 71.629 45.3972C71.629 45.4566 71.4903 45.3576 71.312 45.1994C71.1535 45.0213 70.9356 44.9224 70.8366 44.9818C70.7375 45.0411 70.6384 44.9818 70.5988 44.863C70.5592 44.7443 70.2818 44.6256 69.9846 44.6256C69.6875 44.6059 69.4497 44.5069 69.4497 44.408C69.4497 44.3289 69.3308 44.2893 69.1723 44.3487C69.0139 44.408 68.8554 44.3882 68.8157 44.2893C68.7761 44.1904 68.4393 44.0717 68.0629 44.0519C67.6865 44.0123 67.31 43.9134 67.2506 43.8343C67.1713 43.7354 66.5374 43.6562 65.8043 43.6364C65.0911 43.6167 64.4967 43.5375 64.4967 43.4386C64.4967 43.3595 63.5061 43.3001 62.2976 43.3001C61.1089 43.3001 60.1579 43.3595 60.2174 43.4584C60.257 43.5375 59.5041 43.5969 58.5333 43.5969C57.5625 43.5969 56.7701 43.5573 56.7701 43.4782C56.7701 43.2605 55.1851 42.489 54.987 42.6077C54.8879 42.667 54.7889 42.6274 54.7889 42.5087C54.7889 42.39 54.7096 42.3307 54.6106 42.39C54.5115 42.4692 54.3926 42.4296 54.353 42.3109C54.3332 42.212 54.0756 42.0933 53.7983 42.0735C53.5209 42.0339 53.2435 41.935 53.1841 41.8361C53.1049 41.7372 52.7681 41.658 52.4313 41.6382C52.0944 41.6382 51.8171 41.5393 51.8171 41.4602C51.8171 41.3613 51.6586 41.3217 51.4803 41.3415C51.2822 41.3613 50.9652 41.3217 50.767 41.2228C50.5689 41.1437 50.034 41.1239 49.5981 41.1832C49.0434 41.2624 48.8651 41.2228 49.0632 41.1041C49.2415 40.9854 48.8651 40.926 47.9538 40.926C47.2009 40.926 46.666 41.0052 46.7848 41.0843Z" fill="#EC9696"/>
<path d="M75.5914 48.1472C75.9678 48.5231 76.3046 48.8396 76.3641 48.8396C76.4235 48.8396 76.1659 48.5231 75.7895 48.1472C75.4131 47.7713 75.0763 47.4547 75.0169 47.4547C74.9574 47.4547 75.215 47.7713 75.5914 48.1472Z" fill="#EC9696"/>
<path d="M81.1387 60.4529C81.1387 60.5518 81.2378 60.7497 81.3369 60.908C81.4953 61.1454 81.535 61.1256 81.535 60.7497C81.535 60.5123 81.4557 60.3144 81.3369 60.3144C81.2378 60.3144 81.1387 60.3738 81.1387 60.4529Z" fill="#EC9696"/>
<path d="M78.0481 64.5877C78.1472 64.9636 78.1274 65.0625 77.9491 64.9438C77.7708 64.8449 77.751 64.9042 77.8302 65.1218C77.8896 65.2999 77.8698 65.4582 77.7708 65.4977C77.6717 65.5373 77.5528 65.7747 77.533 66.0517C77.4934 66.3287 77.4142 66.5859 77.3547 66.6452C77.2755 66.7046 76.9387 67.3179 76.5821 68.0301C76.2254 68.7423 75.7698 69.5535 75.5518 69.8502C75.3339 70.1668 75.2348 70.4042 75.2943 70.4042C75.3735 70.4042 75.2348 70.5822 74.9773 70.7999C74.7197 70.9977 74.5612 71.1758 74.6405 71.1955C74.7197 71.1955 74.4622 71.5121 74.0461 71.9078C73.6499 72.3034 73.4518 72.5409 73.6103 72.4617C73.7688 72.3826 73.5508 72.6793 73.115 73.1344C72.3027 74.0049 72.1046 74.1434 72.3225 73.7081C72.4017 73.5894 72.0649 73.8664 71.6093 74.361C71.1536 74.8556 70.8366 75.1128 70.9158 74.9545C70.9951 74.7962 70.8762 74.8754 70.6385 75.1523C70.4007 75.4293 70.1432 75.6469 70.0639 75.6469C69.8064 75.6469 68.4592 76.5768 68.4592 76.7549C68.4592 76.8736 68.3601 76.8933 68.261 76.834C68.1422 76.7746 68.0035 76.8538 67.944 77.012C67.8846 77.1901 67.7459 77.2692 67.6469 77.2297C67.5676 77.1703 67.3101 77.2692 67.1119 77.4671C66.9138 77.6649 66.6166 77.843 66.4581 77.8825C66.2997 77.9221 66.1412 78.0408 66.1213 78.1397C66.0817 78.2387 65.9827 78.2782 65.8836 78.2189C65.7845 78.1595 65.5666 78.2782 65.3685 78.4563C65.1704 78.6541 64.9722 78.7926 64.9128 78.7728C64.6949 78.6739 64.1005 78.9509 64.1005 79.1289C64.1005 79.2476 64.0213 79.2872 63.942 79.2279C63.7439 79.1092 63.1892 79.4455 63.3279 79.6038C63.5062 79.7818 66.0817 79.9401 66.0817 79.762C66.0817 79.6829 66.4978 79.584 66.9931 79.584C67.5082 79.5642 67.9639 79.4653 68.0431 79.3861C68.1025 79.2872 68.3799 79.1883 68.6573 79.1487C68.9346 79.1289 69.1724 79.0102 69.212 78.9113C69.2516 78.8124 69.3903 78.7728 69.529 78.8322C69.6875 78.8915 69.9252 78.7926 70.1035 78.6343C70.262 78.4761 70.4404 78.3969 70.5196 78.4563C70.579 78.5354 70.6385 78.4761 70.6385 78.3376C70.6385 78.1991 70.7375 78.1595 70.8366 78.2189C70.9555 78.2782 71.0347 78.2387 71.0347 78.12C71.0347 78.0012 71.1338 77.9617 71.2328 78.021C71.3517 78.0804 71.4904 78.0012 71.5498 77.843C71.6093 77.6649 71.7479 77.5858 71.847 77.6451C71.9461 77.7045 72.3225 77.4671 72.6593 77.0912C72.9961 76.7351 73.214 76.5768 73.115 76.7351C73.0357 76.8933 73.4716 76.5372 74.0857 75.9437C75.215 74.8556 75.3933 74.638 74.9575 74.8556C74.8188 74.9347 74.9377 74.7962 75.2547 74.5588C75.5518 74.3214 75.75 74.0642 75.6905 73.9653C75.6311 73.8862 75.7301 73.7477 75.9085 73.6883C76.0669 73.629 76.1462 73.4905 76.0868 73.3718C76.0273 73.2729 76.0471 73.1739 76.166 73.1739C76.4236 73.1739 77.6321 70.6614 77.4736 70.424C77.4142 70.325 77.4736 70.2063 77.6123 70.1668C77.7312 70.1272 77.85 69.7513 77.85 69.3556C77.8698 68.9599 77.9293 68.6236 78.0085 68.6236C78.0878 68.6236 78.167 68.4258 78.1868 68.1686C78.1868 67.9312 78.2463 66.9024 78.2859 65.8934C78.3651 64.5679 78.3255 64.0733 78.167 64.0733C78.0085 64.0733 77.9689 64.2513 78.0481 64.5877Z" fill="#EC9696"/>
<path d="M36.1656 65.2603C36.3241 65.3592 36.4033 65.4581 36.3043 65.4581C36.0864 65.4581 36.9383 67.0409 37.176 67.0409C37.2949 67.0409 37.3147 67.12 37.2553 67.2387C37.1958 67.3376 37.2354 67.4365 37.3345 67.4365C37.4534 67.4365 37.5326 67.5157 37.5128 67.6146C37.4732 67.7135 37.6317 67.9509 37.8496 68.129C38.0675 68.307 38.1072 68.406 37.9487 68.3268C37.7902 68.2477 37.9289 68.4455 38.2459 68.7225C38.5827 69.0193 38.7015 69.1973 38.543 69.1182C38.3845 69.039 38.7808 69.5139 39.4148 70.1667C40.0686 70.8394 40.6629 71.334 40.7422 71.2944C40.8214 71.2351 40.9403 71.334 40.9997 71.512C41.079 71.6901 41.178 71.789 41.2375 71.7297C41.2969 71.6901 41.5743 71.8484 41.8516 72.1056C42.129 72.3628 42.4262 72.521 42.5054 72.4815C42.6045 72.4221 42.7035 72.4617 42.7432 72.5606C42.763 72.6595 42.9413 72.7782 43.0998 72.8178C43.2583 72.8574 43.5158 72.9959 43.6743 73.1343C43.813 73.2728 44.0706 73.352 44.2093 73.2926C44.3677 73.2333 44.4866 73.2728 44.4866 73.3915C44.4866 73.5102 44.5659 73.5498 44.6649 73.4905C44.764 73.4113 44.8829 73.4509 44.9225 73.5498C44.9423 73.6487 45.2593 73.7674 45.5763 73.807C45.9131 73.8466 46.2301 73.9455 46.3093 74.0444C46.3688 74.1433 46.9829 74.2422 47.6367 74.2422C48.3103 74.2422 48.8453 74.3214 48.8453 74.4005C48.8453 74.5984 51.5001 74.6181 51.6784 74.4401C51.7378 74.361 52.3718 74.2818 53.0652 74.262C53.7586 74.2422 54.452 74.1433 54.6105 74.0642C54.7492 73.9653 55.1455 73.8663 55.4823 73.8268C55.7992 73.7872 56.0964 73.6685 56.136 73.5696C56.1757 73.4707 56.3342 73.4509 56.4927 73.5102C56.6512 73.5696 56.77 73.53 56.77 73.4509C56.77 73.352 57.0078 73.253 57.305 73.2333C57.6021 73.2333 57.8795 73.1146 57.9191 72.9959C57.9587 72.8969 58.0974 72.8376 58.2361 72.8969C58.3946 72.9563 58.6324 72.8574 58.8107 72.6991C58.9692 72.5408 59.1475 72.4617 59.2267 72.521C59.2861 72.6002 59.3456 72.5408 59.3456 72.4023C59.3456 72.2638 59.4248 72.2243 59.5437 72.2836C59.7616 72.4221 62.1193 71.2351 62.1193 70.9779C62.1193 70.879 62.2381 70.8196 62.3768 70.8592C62.4957 70.879 62.5947 70.78 62.5551 70.6218C62.5155 70.4437 62.6146 70.4041 62.8523 70.4833C63.09 70.5822 63.1495 70.5624 63.0108 70.4239C62.8127 70.2261 61.3862 70.5031 61.1287 70.7998C61.0692 70.8592 60.673 70.9185 60.2371 70.9581C59.8013 70.9977 59.3654 71.0966 59.2663 71.1955C59.1673 71.2944 58.8305 71.3142 58.4937 71.2549C58.1371 71.1757 57.9389 71.2153 58.0182 71.334C58.0974 71.4527 56.5521 71.512 53.8775 71.512C51.3416 71.5318 49.6377 71.4527 49.6377 71.334C49.6377 71.2351 49.4198 71.2153 49.1622 71.2746C48.9047 71.334 48.6471 71.3142 48.6075 71.2153C48.5679 71.1164 48.1915 70.9977 47.7556 70.9581C47.3197 70.9185 46.9037 70.8196 46.8442 70.7207C46.765 70.6218 46.448 70.5426 46.1112 70.5228C45.7744 70.5228 45.5763 70.4239 45.6357 70.325C45.6951 70.2261 45.5961 70.1865 45.4178 70.2657C45.2395 70.325 45.081 70.2854 45.0414 70.1865C45.0017 70.0678 44.7244 69.9491 44.4272 69.9491C44.13 69.9293 43.8923 69.8502 43.8923 69.7711C43.8923 69.6326 42.3073 68.9995 42.0299 69.0193C41.9309 69.039 41.7922 68.9599 41.7328 68.861C41.6733 68.7423 41.4752 68.6236 41.3365 68.584C41.178 68.5444 40.8808 68.3664 40.6827 68.1685C40.4846 67.9707 40.227 67.8718 40.1478 67.9311C40.0487 67.9707 39.9101 67.8916 39.8506 67.7135C39.7714 67.5355 39.6723 67.4365 39.6129 67.4959C39.5534 67.5552 39.3355 67.4365 39.1176 67.2189C38.8996 67.0013 38.6421 66.8826 38.5628 66.9419C38.4638 66.9815 38.3251 66.9024 38.2657 66.7243C38.1864 66.5463 38.0874 66.4473 38.0279 66.5067C37.9487 66.566 37.7307 66.4276 37.5128 66.1901C37.2949 65.9527 37.1958 65.8934 37.2553 66.0517C37.3345 66.2099 37.1562 66.0517 36.859 65.6955C36.5817 65.3592 36.225 65.0625 36.1062 65.0625C35.9675 65.0625 35.9873 65.1416 36.1656 65.2603Z" fill="#EC9696"/>
<path d="M83.5161 67.7334C83.4765 68.0499 83.4369 68.4852 83.4567 68.6632C83.4567 68.861 83.3774 69.0193 83.2982 69.0193C83.1793 69.0193 82.9218 70.0085 82.8029 70.8988C82.8029 70.9977 82.684 71.3538 82.5453 71.6506C82.4265 71.9671 82.367 72.2837 82.4265 72.3826C82.4859 72.4815 82.4265 72.5804 82.3076 72.62C82.1887 72.6596 82.0699 72.9366 82.0699 73.2333C82.05 73.5301 81.951 73.7675 81.8717 73.7675C81.7727 73.7675 81.7529 73.8466 81.8123 73.9455C81.8915 74.0445 81.8519 74.1632 81.7529 74.2027C81.6538 74.2225 81.5349 74.4401 81.4953 74.6578C81.4755 74.8754 81.317 75.1722 81.1783 75.3304C81.0396 75.4689 80.9604 75.7261 81.0198 75.8844C81.0793 76.0427 81.0594 76.1218 80.9604 76.0624C80.8019 75.9635 80.4453 76.8538 80.5047 77.1703C80.5245 77.2693 80.4651 77.3286 80.3462 77.3286C80.1085 77.3286 79.3358 78.8124 79.4943 78.9905C79.5735 79.0498 79.5339 79.1092 79.4151 79.1092C79.2962 79.1092 78.8801 79.6038 78.4839 80.1973C78.0877 80.7908 77.8301 81.2854 77.8895 81.2854C77.949 81.2854 77.8103 81.4635 77.5527 81.6811C77.2952 81.8789 77.1565 82.057 77.2556 82.0768C77.3546 82.0768 77.1961 82.2548 76.9187 82.4922C76.6216 82.7099 76.4036 82.9473 76.4433 83.0462C76.4631 83.1253 76.1461 83.4814 75.7498 83.8376C75.3338 84.1937 75.0366 84.5894 75.0564 84.7081C75.0762 84.8465 74.997 84.9257 74.8583 84.9059C74.7394 84.8861 74.1649 85.3609 73.5903 85.994C73.0158 86.6073 72.6196 86.9832 72.6988 86.8249C72.778 86.6667 72.6196 86.7854 72.3422 87.0821C72.0648 87.3789 71.8271 87.557 71.8271 87.4778C71.8073 87.3987 71.6488 87.5174 71.4506 87.7548C71.2525 87.9922 71.0346 88.1505 70.995 88.0911C70.9355 88.0516 70.6582 88.2296 70.361 88.5066C70.0836 88.7638 69.8063 88.9616 69.7468 88.9418C69.7072 88.9221 69.4893 89.0605 69.2515 89.2386C69.0336 89.4364 68.8553 89.5354 68.8553 89.476C68.8553 89.4167 68.5977 89.5354 68.2609 89.7332C67.9439 89.9113 67.6666 90.1487 67.6666 90.2476C67.6666 90.3267 67.5873 90.3465 67.4684 90.2872C67.3694 90.2278 67.2703 90.2674 67.2703 90.3663C67.2703 90.485 67.2109 90.5641 67.1316 90.5443C66.9137 90.485 64.8929 91.2368 64.8929 91.3555C64.8929 91.4346 64.6551 91.494 64.3778 91.5138C64.0806 91.5138 63.8032 91.6127 63.724 91.7116C63.6646 91.7907 63.3476 91.8897 63.0108 91.9292C62.6938 91.9688 62.3372 92.0677 62.2381 92.1666C62.139 92.2656 61.9409 92.2853 61.8022 92.226C61.6437 92.1666 61.5249 92.226 61.5249 92.3447C61.5249 92.4634 61.406 92.503 61.2673 92.4436C61.1088 92.3843 60.4154 92.4436 59.722 92.5821C58.1766 92.8591 55.2643 92.8591 53.7982 92.5821C53.2038 92.4634 52.55 92.4238 52.3717 92.4832C52.1736 92.5425 52.0151 92.4832 52.0151 92.3645C52.0151 92.226 51.8962 92.1666 51.7378 92.226C51.5991 92.2853 51.401 92.2656 51.3019 92.1666C51.2028 92.0677 50.866 91.9688 50.5292 91.9292C50.2122 91.8897 49.8952 91.8105 49.8358 91.7314C49.7764 91.6523 49.499 91.5533 49.2414 91.5335C48.9641 91.494 48.6273 91.3555 48.4886 91.217C48.2509 90.9994 47.815 90.9005 47.4187 90.9598C47.3197 90.9598 47.2603 90.9005 47.2603 90.8015C47.2603 90.6037 46.4876 90.2674 46.23 90.3465C46.131 90.3663 46.0715 90.2872 46.0715 90.1685C46.0715 90.0695 45.9923 90.03 45.8734 90.0893C45.7744 90.1487 45.6753 90.1091 45.6753 89.9904C45.6753 89.8717 45.596 89.8123 45.497 89.8717C45.3979 89.931 45.2592 89.8519 45.1998 89.6739C45.1404 89.5156 45.0017 89.4364 44.8828 89.4958C44.7838 89.5551 44.6847 89.5156 44.6847 89.3771C44.6847 89.2386 44.6253 89.1792 44.5658 89.2386C44.5064 89.298 44.229 89.1397 43.9517 88.8825C43.6743 88.6253 43.3771 88.467 43.2781 88.5264C43.179 88.5857 43.0997 88.5462 43.0997 88.4472C43.0997 88.3483 42.7233 87.9724 42.2676 87.6163C41.812 87.2404 41.5148 87.0624 41.594 87.2008C41.6733 87.3196 40.9204 86.5875 39.9298 85.5588C38.9194 84.5102 37.9288 83.6199 37.7307 83.5606C37.5128 83.4814 37.3543 83.343 37.3543 83.244C37.3543 83.1253 37.4731 83.1056 37.592 83.1847C37.7703 83.2836 37.7703 83.244 37.5722 83.0066C37.4335 82.8286 37.2354 82.7297 37.1363 82.789C36.8986 82.9275 37.493 83.9167 38.3449 84.807C38.7213 85.2027 38.8996 85.4599 38.7411 85.3609C38.5826 85.2818 38.7213 85.4599 39.0383 85.7566C39.3751 86.0534 39.6128 86.3699 39.593 86.4293C39.5732 86.5084 40.0487 87.0426 40.6629 87.6361C41.277 88.2296 41.6931 88.5659 41.6138 88.4077C41.5346 88.2494 41.812 88.467 42.2082 88.9023C42.6044 89.3375 42.862 89.5551 42.8026 89.3969C42.7233 89.2386 42.862 89.3177 43.0799 89.5947C43.2979 89.8717 43.496 90.03 43.496 89.9508C43.496 89.8717 43.7337 90.03 44.0111 90.2872C44.3083 90.5641 44.6055 90.7224 44.7045 90.6631C44.8036 90.6037 44.8828 90.6433 44.8828 90.762C44.8828 90.8807 45.1602 91.0983 45.4772 91.2764C45.814 91.4544 46.0715 91.5335 46.0715 91.4742C46.0715 91.3951 46.2102 91.494 46.3885 91.6523C46.547 91.8303 46.7848 91.9292 46.8838 91.8699C46.9829 91.7907 47.0621 91.8501 47.0621 91.9688C47.0621 92.0875 47.1414 92.1469 47.2404 92.0875C47.3395 92.0084 47.4584 92.0479 47.498 92.1469C47.5178 92.2458 47.7357 92.3645 47.9537 92.404C48.1716 92.4238 48.4093 92.5425 48.4688 92.6217C48.548 92.7206 48.8254 92.8195 49.1226 92.8195C49.3999 92.8393 49.6377 92.9184 49.6377 92.9778C49.6377 93.1558 51.0641 93.5515 51.2821 93.413C51.3811 93.3537 51.5396 93.413 51.6189 93.5515C51.6981 93.6702 52.2132 93.8087 52.7878 93.8087C53.3425 93.8285 53.7982 93.9076 53.7982 93.967C53.7982 94.1648 54.9671 94.2242 58.5134 94.2242C60.2965 94.2044 61.822 94.1253 61.8815 94.0263C61.9607 93.9274 62.4164 93.8285 62.9117 93.7889C63.3872 93.7494 63.8429 93.6307 63.9221 93.512C64.0014 93.3932 64.14 93.3537 64.2391 93.413C64.4967 93.5713 66.0816 93.1558 66.0816 92.9184C66.0816 92.8195 66.1609 92.7799 66.2797 92.8591C66.5175 93.0174 67.4883 92.7602 67.3694 92.5623C67.3298 92.4832 67.5081 92.404 67.8052 92.404C68.1024 92.404 68.3798 92.3051 68.4194 92.1864C68.459 92.0677 68.5779 92.0084 68.677 92.0875C68.776 92.1469 68.8553 92.0875 68.8553 91.9688C68.8553 91.8501 68.9345 91.8105 69.0534 91.8699C69.2911 92.0084 71.629 90.8015 71.629 90.5443C71.629 90.4454 71.7082 90.4059 71.8271 90.485C71.9261 90.5443 72.1837 90.4256 72.4016 90.208C72.6196 89.9904 72.8375 89.8717 72.8969 89.931C72.9564 89.9904 73.0554 89.8915 73.1347 89.7134C73.1941 89.5354 73.3328 89.4562 73.4318 89.5156C73.5309 89.5749 73.6696 89.476 73.729 89.3177C73.7885 89.1397 73.9271 89.0408 74.0064 89.1001C74.1054 89.1595 74.3036 89.021 74.4621 88.8034C74.6007 88.5857 74.7791 88.467 74.8583 88.5264C74.9177 88.5857 75.1159 88.4077 75.2942 88.1307C75.4923 87.8537 75.6904 87.6559 75.7697 87.7152C75.8489 87.7548 76.5819 87.1217 77.3942 86.2908C78.2065 85.4599 78.682 84.8861 78.4641 85.0246C78.2461 85.1829 78.3452 85.0444 78.6622 84.7278C78.999 84.4311 79.2367 84.1145 79.2169 84.0354C79.1773 83.9365 79.3358 83.7782 79.5537 83.6595C79.7717 83.5408 79.9104 83.3627 79.8509 83.2836C79.7915 83.1847 79.8905 83.0462 80.0688 82.9868C80.2273 82.9275 80.3264 82.789 80.267 82.6901C80.2075 82.5912 80.2868 82.4527 80.4651 82.3933C80.6236 82.334 80.7028 82.1955 80.6434 82.0768C80.584 81.9779 80.6236 81.8789 80.7425 81.8789C80.8613 81.8789 80.9009 81.78 80.8415 81.6811C80.7821 81.5624 80.8217 81.4833 80.9208 81.4833C81.1585 81.4833 82.2085 79.5246 82.05 79.3664C81.9906 79.307 82.0897 79.129 82.2482 78.9707C82.4067 78.7926 82.5057 78.5354 82.4463 78.397C82.3868 78.2387 82.4265 78.12 82.5453 78.12C82.6642 78.12 82.7038 78.0408 82.6444 77.9419C82.5652 77.843 82.6246 77.7243 82.7236 77.6847C82.8425 77.6452 82.9614 77.3484 82.9812 77.0319C83.001 76.6955 83.1001 76.379 83.1793 76.3196C83.2784 76.2603 83.3576 75.8844 83.3774 75.4887C83.3973 75.093 83.4765 74.7567 83.5557 74.7567C83.635 74.7567 83.7142 74.5588 83.7142 74.3017C83.7142 74.0642 83.7935 73.3718 83.8926 72.7783C84.1501 71.3538 84.1699 67.7729 83.9322 67.9312C83.8331 67.9906 83.6944 67.8323 83.6548 67.5949C83.5756 67.219 83.5557 67.2388 83.5161 67.7334ZM39.8506 85.6775L40.4251 86.3303L39.7911 85.7566C39.177 85.2027 39.0383 85.0444 39.1968 85.0444C39.2364 85.0444 39.5138 85.3411 39.8506 85.6775Z" fill="#EC9696"/>
<path d="M40.029 90.7223C40.0488 90.9201 40.1875 91.0586 40.3063 91.0191C40.4252 90.9993 40.5243 91.0586 40.5243 91.1576C40.5243 91.2565 40.6828 91.395 40.8611 91.4741C41.079 91.5532 40.9997 91.3752 40.6431 90.9993C39.9497 90.2871 39.9497 90.2871 40.029 90.7223Z" fill="#EC9696"/>
</svg>
